<?xml version="1.0" standalone="no"?>
<!DOCTYPE svg PUBLIC "-//W3C//DTD SVG 20010904//EN"
 "http://www.w3.org/TR/2001/REC-SVG-20010904/DTD/svg10.dtd">
<svg version="1.0" xmlns="http://www.w3.org/2000/svg"
 width="266.000000pt" height="240.000000pt" viewBox="0 0 266.000000 240.000000"
 preserveAspectRatio="xMidYMid meet">
<metadata>
Created by potrace 1.16, written by Peter Selinger 2001-2019
</metadata>
<g transform="translate(0.000000,240.000000) scale(0.100000,-0.100000)"
fill="#000000" stroke="none">
<path d="M2175 2315 c-103 -56 -142 -168 -92 -265 12 -24 39 -58 60 -74 36
-29 45 -31 117 -31 72 0 81 2 117 31 48 38 83 106 83 159 0 53 -35 121 -83
159 -32 26 -48 31 -105 34 -48 2 -76 -2 -97 -13z m152 -109 c23 -20 28 -32 28
-71 0 -60 -35 -95 -95 -95 -60 0 -95 35 -95 95 0 60 35 95 95 95 27 0 48 -8
67 -24z"/>
<path d="M1140 2081 c-226 -21 -427 -113 -594 -272 -76 -72 -174 -205 -210
-285 -14 -33 -26 -44 -55 -52 -49 -15 -117 -74 -142 -125 -33 -63 -36 -142 -9
-205 24 -56 95 -128 136 -138 28 -7 26 0 64 -219 38 -218 62 -279 149 -366 74
-74 159 -115 262 -129 96 -12 1042 -12 1138 0 102 14 188 55 260 127 86 87
114 153 151 363 39 227 36 217 63 224 13 3 44 23 69 45 116 102 115 269 -1
374 -22 20 -58 41 -79 48 -33 9 -44 19 -58 53 -38 85 -135 215 -218 293 -133
124 -299 211 -475 248 -82 17 -337 26 -451 16z m435 -116 c140 -29 270 -93
391 -192 86 -71 148 -151 214 -275 46 -85 60 -104 85 -111 92 -27 134 -68 142
-138 5 -55 -19 -105 -67 -137 -31 -21 -42 -23 -95 -17 -78 8 -99 8 -163 -1
-44 -5 -62 -3 -101 16 l-48 22 -41 -21 c-53 -27 -112 -27 -164 0 l-42 21 -43
-21 c-55 -27 -113 -27 -165 0 l-42 21 -43 -21 c-55 -27 -111 -27 -166 0 l-43
21 -42 -21 c-52 -27 -110 -27 -165 0 l-43 21 -42 -21 c-52 -27 -111 -27 -164
0 l-41 21 -47 -22 c-38 -18 -57 -21 -96 -16 -60 8 -102 8 -174 1 -47 -6 -60
-3 -90 17 -48 32 -72 82 -67 137 8 70 50 111 142 138 21 6 36 21 50 48 11 22
37 70 58 108 118 210 336 369 579 422 92 20 436 20 533 0z m-765 -975 c33 0
75 6 93 13 26 11 37 11 62 1 40 -17 147 -17 188 -1 26 11 37 11 62 1 40 -17
147 -17 188 -1 26 11 37 11 62 1 40 -17 147 -17 188 -1 26 11 37 11 62 1 39
-17 151 -17 190 0 25 10 36 10 63 -1 24 -10 66 -13 137 -11 57 2 107 0 111 -4
12 -12 -54 -354 -78 -406 -29 -60 -99 -131 -163 -162 l-50 -25 -599 -3 c-664
-3 -646 -4 -738 63 -54 40 -99 101 -121 165 -20 61 -71 359 -62 368 4 4 55 6
113 5 72 -2 117 2 137 11 25 10 35 10 62 -1 18 -7 60 -13 93 -13z"/>
<path d="M1250 1833 c-99 -156 -106 -355 -17 -517 18 -33 40 -64 49 -70 32
-20 69 5 104 69 90 163 84 361 -16 518 -25 39 -35 47 -60 47 -25 0 -35 -8 -60
-47z m84 -161 c9 -32 16 -82 16 -112 0 -55 -27 -170 -40 -170 -13 0 -40 115
-40 170 0 55 27 170 40 170 4 0 15 -26 24 -58z"/>
<path d="M929 1831 c-124 -89 -199 -243 -199 -405 0 -138 26 -188 86 -166 44
17 158 139 187 202 54 114 69 221 46 328 -9 44 -36 80 -60 80 -3 0 -30 -18
-60 -39z m21 -221 c-14 -65 -62 -159 -97 -192 l-26 -23 5 71 c6 82 37 160 89
219 l34 39 3 -30 c2 -16 -1 -54 -8 -84z"/>
<path d="M1600 1852 c-60 -49 -51 -253 18 -392 30 -61 144 -184 186 -200 60
-22 86 28 86 166 0 120 -33 216 -109 318 -32 42 -132 126 -152 126 -4 0 -17
-8 -29 -18z m152 -249 c23 -48 32 -80 35 -135 l4 -73 -31 35 c-58 65 -100 171
-100 254 l0 40 31 -30 c16 -16 44 -57 61 -91z"/>
<path d="M582 824 c-27 -19 -27 -34 -1 -115 34 -101 78 -152 169 -197 l55 -27
425 -3 c468 -3 475 -2 475 53 0 54 -9 55 -467 55 -334 -1 -423 2 -450 13 -49
21 -95 79 -114 145 -14 50 -43 92 -63 92 -4 0 -17 -7 -29 -16z"/>
<path d="M179 307 c-64 -42 -85 -120 -51 -187 53 -107 211 -107 264 0 50 98
-21 210 -132 210 -32 0 -58 -7 -81 -23z"/>
</g>
</svg>
