<?xml version="1.0" standalone="no"?>
<!DOCTYPE svg PUBLIC "-//W3C//DTD SVG 20010904//EN"
 "http://www.w3.org/TR/2001/REC-SVG-20010904/DTD/svg10.dtd">
<svg version="1.0" xmlns="http://www.w3.org/2000/svg"
 width="118.000000pt" height="121.000000pt" viewBox="0 0 118.000000 121.000000"
 preserveAspectRatio="xMidYMid meet">
<metadata>
Created by potrace 1.16, written by Peter Selinger 2001-2019
</metadata>
<g transform="translate(0.000000,121.000000) scale(0.100000,-0.100000)"
fill="#000000" stroke="none">
<path d="M645 1016 c-60 -20 -195 -84 -236 -112 -56 -38 -82 -94 -77 -164 13
-176 233 -230 331 -82 14 22 46 84 71 139 63 138 62 199 -5 222 -38 13 -33 13
-84 -3z m94 -22 c20 -15 23 -23 19 -68 -6 -68 -97 -254 -144 -295 -103 -91
-266 -16 -266 124 0 86 40 127 187 195 139 65 165 71 204 44z"/>
<path d="M514 868 c-18 -4 -46 -24 -63 -43 -54 -62 -37 -147 33 -161 97 -18
184 105 126 178 -23 30 -52 38 -96 26z m76 -28 c31 -31 27 -85 -9 -120 -60
-60 -133 -48 -139 24 -4 46 18 83 61 101 44 19 64 18 87 -5z"/>
<path d="M714 608 c-52 -50 -94 -95 -94 -100 0 -5 15 -17 33 -28 116 -71 258
71 187 188 -11 17 -23 32 -26 32 -4 0 -49 -41 -100 -92z m116 43 c26 -50 1
-130 -50 -156 -37 -19 -90 -19 -116 -1 -18 14 -18 16 14 48 l32 33 0 -37 c0
-20 5 -40 10 -43 6 -4 10 11 10 36 l0 43 30 -29 c39 -37 52 -24 15 15 l-29 30
43 0 c25 0 40 4 36 10 -3 6 -23 10 -42 10 l-37 0 29 30 c34 35 41 37 55 11z"/>
<path d="M223 354 c11 -110 96 -242 182 -284 41 -20 58 -22 178 -18 123 3 135
5 173 30 80 52 151 171 161 273 l6 55 -353 0 -353 0 6 -56z m681 37 c8 -12
-20 -114 -44 -162 -29 -55 -86 -117 -131 -140 -32 -16 -59 -19 -160 -19 -133
0 -165 9 -214 60 -27 28 -28 32 -14 56 20 38 31 39 113 15 40 -12 79 -19 88
-16 8 3 24 26 37 52 25 52 32 50 66 -20 11 -23 27 -43 35 -45 19 -3 119 60
104 65 -7 2 -29 -8 -50 -22 -20 -14 -42 -24 -48 -22 -6 2 -21 25 -33 50 -28
57 -55 62 -81 16 -38 -68 -33 -66 -109 -41 -89 28 -98 28 -124 -8 -12 -16 -26
-27 -31 -24 -25 16 -85 185 -72 205 7 12 661 12 668 0z"/>
</g>
</svg>
