<?xml version="1.0" standalone="no"?>
<!DOCTYPE svg PUBLIC "-//W3C//DTD SVG 20010904//EN"
 "http://www.w3.org/TR/2001/REC-SVG-20010904/DTD/svg10.dtd">
<svg version="1.0" xmlns="http://www.w3.org/2000/svg"
 width="236.000000pt" height="191.000000pt" viewBox="0 0 236.000000 191.000000"
 preserveAspectRatio="xMidYMid meet">

<g transform="translate(0.000000,191.000000) scale(0.100000,-0.100000)"
fill="#000000" stroke="none">
<path d="M1015 1575 c-27 -8 -72 -14 -98 -15 -26 0 -64 -7 -84 -15 -19 -8 -50
-15 -68 -15 -18 0 -59 -14 -91 -30 -32 -17 -77 -35 -99 -41 -65 -17 -205 -177
-205 -234 0 -9 -16 -50 -36 -91 -32 -65 -36 -80 -30 -123 l6 -49 -87 -27 c-92
-28 -176 -66 -205 -93 -15 -13 -18 -33 -18 -136 l1 -121 43 -33 c51 -38 137
-74 218 -92 48 -11 59 -17 67 -41 36 -105 202 -183 466 -221 122 -17 600 -17
725 1 227 32 416 128 452 231 7 23 18 29 66 40 78 17 210 80 250 121 76 75 86
164 28 242 -23 32 -95 79 -147 97 l-37 13 -4 76 c-7 121 -68 215 -167 259 -47
21 -208 21 -274 -1 -46 -15 -48 -15 -59 6 -18 35 -128 149 -174 182 -24 17
-61 43 -84 59 -34 24 -56 31 -123 37 -45 4 -100 12 -122 18 -49 13 -48 13
-110 -4z m121 -101 c25 -8 63 -15 83 -13 68 4 83 -1 119 -37 19 -19 53 -44 74
-55 21 -11 38 -25 38 -32 0 -7 20 -30 45 -50 25 -21 45 -44 45 -51 0 -7 -36
-35 -81 -61 -95 -56 -194 -145 -214 -191 -12 -30 -22 -35 -100 -59 -57 -18
-100 -25 -124 -22 -20 3 -58 9 -84 13 -86 12 -157 -40 -159 -117 l-1 -31 -61
6 c-34 4 -83 6 -109 6 -75 -2 -112 15 -157 72 -28 36 -40 60 -40 84 0 24 -5
34 -20 39 -24 8 -25 18 -6 34 8 7 17 25 21 40 3 16 17 43 31 62 13 18 24 43
24 56 0 40 26 85 83 146 41 44 61 57 83 57 16 0 49 14 73 30 42 29 66 35 119
30 13 -1 32 6 43 16 15 13 30 16 73 11 36 -4 60 -1 72 8 18 12 45 21 71 24 7
0 33 -6 59 -15z m777 -288 c21 -8 48 -22 59 -33 32 -28 58 -93 58 -149 0 -43
-5 -56 -34 -91 -41 -46 -124 -87 -223 -108 -80 -17 -232 -19 -302 -4 -66 14
-120 61 -128 112 -7 46 14 72 124 148 163 113 340 162 446 125z m-1568 -362
c25 -46 87 -101 140 -125 35 -16 75 -20 212 -24 94 -2 177 -7 186 -10 8 -4 18
-16 21 -29 10 -40 60 -78 111 -84 62 -6 88 9 126 75 31 56 44 65 154 104 37
14 44 13 100 -10 81 -33 263 -41 386 -17 98 20 220 74 266 118 31 30 34 31 70
20 54 -16 133 -68 134 -89 6 -92 -82 -152 -288 -198 -330 -73 -802 -91 -1293
-49 -348 29 -501 66 -577 139 -87 84 -50 126 182 203 46 16 49 15 70 -24z
m915 13 c0 -8 -19 -20 -41 -27 -68 -23 -125 -65 -154 -115 -32 -53 -58 -57
-63 -10 -5 41 -25 61 -76 74 -76 19 -64 72 12 55 66 -15 173 -9 232 13 67 25
90 27 90 10z m-605 -432 c374 -32 788 -28 1080 10 60 8 111 15 113 15 15 0
-21 -26 -68 -50 -153 -77 -388 -108 -730 -96 -275 9 -453 42 -557 102 -50 29
-65 47 -31 39 12 -2 100 -11 193 -20z"/>
<path d="M1166 1369 c-44 -64 80 -160 149 -115 45 29 28 86 -26 86 -17 0 -32
9 -43 25 -20 31 -59 33 -80 4z"/>
<path d="M607 1239 c-45 -26 -65 -139 -28 -159 11 -5 24 -10 30 -10 20 0 51
40 51 65 0 14 7 28 15 31 18 7 20 55 3 72 -15 15 -47 15 -71 1z"/>
<path d="M917 1152 c-36 -40 -16 -72 51 -83 29 -4 59 -16 71 -28 28 -28 57
-26 76 3 15 22 15 27 1 54 -31 60 -162 95 -199 54z"/>
</g>
</svg>
