<?xml version="1.0" standalone="no"?>
<!DOCTYPE svg PUBLIC "-//W3C//DTD SVG 20010904//EN"
 "http://www.w3.org/TR/2001/REC-SVG-20010904/DTD/svg10.dtd">
<svg version="1.0" xmlns="http://www.w3.org/2000/svg"
 width="243.000000pt" height="230.000000pt" viewBox="0 0 243.000000 230.000000"
 preserveAspectRatio="xMidYMid meet">

<g transform="translate(0.000000,230.000000) scale(0.100000,-0.100000)"
fill="#000000" stroke="none">
<path d="M190 2247 c-85 -45 -113 -148 -60 -220 l22 -29 -27 -54 c-32 -62 -30
-109 6 -157 l21 -29 -27 -54 c-32 -62 -30 -109 6 -157 l21 -29 -27 -54 c-32
-62 -30 -109 6 -157 l21 -29 -27 -54 c-32 -62 -30 -109 6 -157 l21 -29 -27
-54 c-32 -62 -30 -109 6 -157 l21 -29 -27 -54 c-32 -62 -30 -109 6 -157 l21
-29 -27 -54 c-32 -62 -30 -109 6 -157 l21 -29 -27 -54 c-32 -63 -30 -106 7
-160 25 -37 90 -74 130 -74 14 0 46 11 72 25 l46 24 47 -25 c58 -31 106 -28
164 10 21 15 39 22 39 17 0 -5 21 -19 46 -31 54 -27 101 -23 152 14 34 24 35
24 55 5 50 -46 127 -48 186 -5 33 24 33 24 54 6 50 -47 127 -49 186 -5 31 22
35 23 49 8 21 -21 75 -43 105 -43 13 0 45 11 71 25 l46 24 48 -25 c57 -31 105
-28 163 10 21 15 39 22 39 17 0 -5 21 -19 46 -31 54 -27 101 -23 152 14 34 24
35 24 55 5 71 -66 192 -38 236 55 27 55 26 83 -4 140 l-24 46 24 46 c31 59 31
89 0 148 l-24 46 24 46 c31 59 31 89 0 148 l-24 46 24 46 c14 26 25 59 25 74
0 15 -11 48 -25 74 l-24 46 24 46 c31 59 31 89 0 148 l-24 46 24 46 c31 59 31
89 0 148 l-24 46 24 46 c31 59 31 89 0 148 l-24 46 24 46 c31 59 31 89 0 148
l-24 46 24 46 c14 26 25 59 25 74 0 48 -42 112 -90 137 -55 29 -86 29 -144 -2
l-46 -24 -46 24 c-59 31 -89 31 -148 0 l-46 -24 -46 24 c-26 14 -59 25 -74 25
-15 0 -48 -11 -74 -25 l-46 -24 -46 24 c-26 14 -59 25 -74 25 -15 0 -48 -11
-74 -25 l-46 -24 -46 24 c-59 31 -89 31 -148 0 l-46 -24 -46 24 c-59 31 -89
31 -148 0 l-46 -24 -46 24 c-26 14 -59 25 -74 25 -15 0 -48 -11 -74 -25 l-46
-24 -46 24 c-26 14 -59 25 -74 25 -15 0 -48 -11 -74 -25 l-46 -24 -46 24 c-58
31 -89 31 -144 2z m127 -79 c12 -13 23 -36 25 -52 2 -16 11 -34 21 -40 24 -15
51 4 55 40 12 98 152 98 164 0 7 -60 69 -60 76 0 12 98 152 98 164 0 2 -16 11
-34 21 -40 24 -15 51 4 55 40 12 98 152 98 164 0 7 -60 69 -60 76 0 12 98 152
98 164 0 7 -60 69 -60 76 0 12 98 152 98 164 0 7 -60 69 -60 76 0 12 98 152
98 164 0 7 -60 69 -60 76 0 5 44 39 74 82 74 43 0 77 -30 82 -74 4 -36 31 -55
56 -40 9 6 18 24 20 40 8 68 89 99 139 52 47 -44 16 -133 -49 -140 -62 -6 -63
-69 -2 -76 16 -2 39 -13 52 -25 46 -43 14 -133 -50 -139 -62 -6 -63 -69 -2
-76 16 -2 39 -13 52 -25 46 -43 14 -133 -50 -139 -62 -6 -63 -69 -2 -76 16 -2
39 -13 52 -25 46 -43 14 -133 -50 -139 -62 -6 -63 -69 -2 -76 16 -2 39 -13 52
-25 46 -43 14 -133 -50 -139 -62 -6 -63 -69 -2 -76 16 -2 39 -13 52 -25 46
-43 14 -133 -50 -139 -62 -6 -63 -69 -2 -76 16 -2 39 -13 52 -25 46 -43 14
-133 -50 -139 -62 -6 -63 -69 -2 -76 16 -2 39 -13 52 -25 46 -43 14 -133 -50
-139 -62 -6 -63 -69 -2 -76 67 -8 96 -81 53 -136 -42 -54 -133 -23 -141 48 -7
60 -69 60 -76 0 -5 -44 -39 -74 -82 -74 -43 0 -69 24 -79 71 -13 63 -72 65
-79 3 -5 -44 -39 -74 -82 -74 -43 0 -69 24 -79 71 -13 63 -72 65 -79 3 -12
-98 -152 -98 -164 0 -7 62 -66 60 -79 -3 -10 -47 -36 -71 -79 -71 -43 0 -77
30 -82 74 -4 36 -31 55 -55 40 -10 -6 -19 -24 -21 -40 -12 -98 -152 -98 -164
0 -7 60 -69 60 -76 0 -5 -44 -39 -74 -82 -74 -43 0 -69 24 -79 71 -13 63 -72
65 -79 3 -5 -44 -39 -74 -82 -74 -43 0 -69 24 -79 71 -13 63 -72 65 -79 3 -12
-102 -162 -97 -162 6 0 43 30 77 74 82 60 7 60 69 0 76 -98 12 -98 152 0 164
60 7 60 69 0 76 -98 12 -98 152 0 164 60 7 60 69 0 76 -98 12 -98 152 0 164
60 7 60 69 0 76 -98 12 -98 152 0 164 60 7 60 69 0 76 -98 12 -98 152 0 164
60 7 60 69 0 76 -98 12 -98 152 0 164 16 2 34 11 40 21 15 24 -4 51 -40 55
-98 12 -98 152 0 164 60 7 60 69 0 76 -102 12 -97 162 6 162 25 0 43 -7 57
-22z"/>
<path d="M525 1936 c-75 -33 -118 -114 -97 -184 22 -74 107 -132 174 -118 81
16 146 100 135 172 -9 54 -43 100 -91 123 -49 24 -79 26 -121 7z m112 -88 c51
-47 12 -138 -58 -138 -70 0 -106 85 -57 137 28 30 83 31 115 1z"/>
<path d="M1150 1927 c-118 -62 -113 -219 8 -278 76 -38 163 -5 202 77 38 78 6
164 -76 204 -52 26 -81 25 -134 -3z m127 -79 c50 -47 14 -138 -55 -138 -48 0
-82 32 -82 79 0 72 84 109 137 59z"/>
<path d="M1805 1936 c-75 -33 -118 -114 -97 -184 22 -74 107 -132 174 -118 81
16 146 100 135 173 -9 51 -46 100 -93 123 -47 23 -77 25 -119 6z m112 -88 c50
-47 14 -138 -55 -138 -48 0 -82 32 -82 79 0 72 84 109 137 59z"/>
<path d="M830 1607 c-118 -62 -113 -219 8 -278 76 -38 163 -5 202 77 38 78 6
164 -76 204 -52 26 -81 25 -134 -3z m127 -79 c50 -47 14 -138 -55 -138 -48 0
-82 32 -82 79 0 72 84 109 137 59z"/>
<path d="M1485 1616 c-75 -33 -118 -114 -97 -184 22 -74 107 -132 174 -118 81
16 146 100 135 173 -9 51 -46 100 -93 123 -47 23 -77 25 -119 6z m112 -88 c50
-47 14 -138 -55 -138 -48 0 -82 32 -82 79 0 72 84 109 137 59z"/>
<path d="M510 1287 c-118 -62 -113 -219 8 -278 76 -38 163 -5 202 77 38 78 6
164 -76 204 -52 26 -81 25 -134 -3z m127 -79 c50 -47 14 -138 -55 -138 -48 0
-82 32 -82 79 0 72 84 109 137 59z"/>
<path d="M1165 1296 c-75 -33 -118 -114 -97 -184 22 -74 107 -132 174 -118 81
16 146 100 135 173 -9 51 -46 100 -93 123 -47 23 -77 25 -119 6z m112 -88 c50
-47 14 -138 -55 -138 -48 0 -82 32 -82 79 0 72 84 109 137 59z"/>
<path d="M1805 1296 c-130 -57 -136 -225 -9 -286 79 -39 165 -6 204 76 38 78
6 165 -74 203 -49 24 -79 26 -121 7z m112 -88 c51 -48 15 -138 -56 -138 -47 0
-81 32 -81 79 0 72 84 109 137 59z"/>
<path d="M845 976 c-75 -33 -118 -114 -97 -184 22 -74 107 -132 174 -118 81
16 146 100 135 173 -9 51 -46 100 -93 123 -47 23 -77 25 -119 6z m112 -88 c50
-47 14 -138 -55 -138 -48 0 -82 32 -82 79 0 72 84 109 137 59z"/>
<path d="M1485 976 c-130 -57 -136 -225 -9 -286 79 -39 165 -6 204 76 38 78 6
165 -74 203 -49 24 -79 26 -121 7z m112 -88 c51 -48 15 -138 -56 -138 -47 0
-81 32 -81 79 0 72 84 109 137 59z"/>
<path d="M525 656 c-75 -33 -118 -114 -97 -184 22 -74 107 -132 174 -118 81
16 146 100 135 173 -9 51 -46 100 -93 123 -47 23 -77 25 -119 6z m112 -88 c50
-47 14 -138 -55 -138 -48 0 -82 32 -82 79 0 72 84 109 137 59z"/>
<path d="M1165 656 c-130 -57 -136 -225 -9 -286 79 -39 165 -6 204 76 38 78 6
165 -74 203 -49 24 -79 26 -121 7z m112 -88 c51 -48 15 -138 -56 -138 -47 0
-81 32 -81 79 0 72 84 109 137 59z"/>
<path d="M1805 656 c-75 -33 -118 -114 -97 -184 22 -74 107 -132 174 -118 81
16 146 100 135 172 -9 54 -43 100 -91 123 -49 24 -79 26 -121 7z m112 -88 c51
-48 15 -138 -56 -138 -47 0 -81 32 -81 79 0 72 84 109 137 59z"/>
</g>
</svg>
