<?xml version="1.0" standalone="no"?>
<!DOCTYPE svg PUBLIC "-//W3C//DTD SVG 20010904//EN"
 "http://www.w3.org/TR/2001/REC-SVG-20010904/DTD/svg10.dtd">
<svg version="1.0" xmlns="http://www.w3.org/2000/svg"
 width="267.000000pt" height="259.000000pt" viewBox="0 0 267.000000 259.000000"
 preserveAspectRatio="xMidYMid meet">
<metadata>
Created by potrace 1.16, written by Peter Selinger 2001-2019
</metadata>
<g transform="translate(0.000000,259.000000) scale(0.100000,-0.100000)"
fill="#000000" stroke="none">
<path d="M1180 2579 c-526 -65 -959 -448 -1089 -960 -131 -518 82 -1069 531
-1369 148 -99 325 -170 498 -201 106 -19 335 -16 442 4 258 51 483 171 668
356 250 251 374 550 374 901 0 158 -16 264 -60 397 -125 379 -441 694 -819
818 -160 52 -385 74 -545 54z m346 -84 c440 -76 801 -386 944 -813 23 -69 59
-246 60 -292 0 -3 -21 -3 -46 -1 -43 3 -49 0 -93 -43 l-47 -46 -44 45 c-37 38
-50 45 -83 45 -31 0 -46 -8 -89 -47 l-50 -48 -37 42 c-45 53 -82 68 -127 53
-19 -7 -40 -20 -48 -31 -12 -18 -14 -14 -25 43 -26 134 -110 262 -218 334
-259 172 -608 86 -751 -183 -27 -51 -61 -165 -62 -207 0 -5 -12 3 -26 18 -43
43 -93 37 -153 -19 l-47 -44 -44 44 c-37 38 -50 45 -83 45 -31 0 -46 -8 -88
-47 l-50 -47 -45 48 c-43 48 -45 48 -94 44 -28 -3 -50 -2 -50 1 1 47 37 223
60 293 143 426 497 732 938 812 104 19 290 19 398 1z m-36 -774 c109 -42 208
-140 252 -251 32 -79 32 -241 0 -320 -28 -71 -85 -145 -147 -192 -84 -64 -144
-82 -265 -82 -121 0 -181 18 -265 82 -106 81 -165 191 -173 328 -12 204 109
380 306 445 76 25 213 21 292 -10z m-1263 -446 c34 -38 46 -45 77 -45 46 0 67
11 111 58 l35 37 38 -42 c67 -76 109 -77 185 -4 l48 46 53 -56 c37 -39 55 -68
59 -93 11 -66 69 -168 133 -232 275 -276 751 -154 859 221 13 44 30 72 66 110
l48 50 48 -46 c75 -73 119 -72 185 4 l37 42 44 -47 c39 -43 49 -48 86 -48 36
0 49 6 90 45 26 25 51 45 54 45 3 0 15 -16 27 -35 20 -32 20 -39 10 -117 -81
-609 -586 -1058 -1190 -1058 -584 0 -1085 425 -1185 1004 -8 49 -15 102 -15
118 0 26 35 88 50 88 4 0 25 -20 47 -45z"/>
<path d="M1160 2395 c-88 -14 -235 -58 -257 -77 -18 -15 -16 -47 3 -55 9 -3
53 5 98 20 135 43 193 52 336 50 145 -1 225 -16 355 -68 54 -22 69 -24 81 -14
33 27 12 53 -71 86 -159 63 -377 86 -545 58z"/>
<path d="M717 2102 c-26 -26 -47 -52 -47 -56 0 -9 39 -46 48 -46 3 0 16 10 29
22 l23 22 28 -27 28 -27 27 28 27 28 -53 52 c-29 29 -55 52 -58 52 -2 0 -26
-22 -52 -48z"/>
<path d="M1780 2085 l-54 -55 27 -27 27 -27 28 27 28 27 25 -25 25 -25 27 28
27 28 -53 52 -53 52 -54 -55z"/>
<path d="M1272 2017 l-52 -53 28 -27 28 -27 28 28 27 27 24 -30 24 -29 31 29
30 29 -52 53 c-29 29 -55 53 -58 53 -3 0 -29 -24 -58 -53z"/>
<path d="M2207 1853 c-14 -14 -6 -55 18 -93 35 -55 63 -129 90 -235 23 -90 39
-113 69 -102 22 9 21 55 -5 153 -21 83 -101 263 -122 276 -15 10 -41 10 -50 1z"/>
<path d="M2035 1640 l-49 -50 27 -27 26 -27 26 24 25 24 28 -27 28 -27 27 28
27 28 -53 52 c-29 29 -55 52 -58 52 -2 0 -27 -23 -54 -50z"/>
<path d="M462 1617 l-52 -53 28 -27 28 -27 27 27 27 27 28 -27 28 -27 27 28
27 28 -53 52 c-29 29 -55 52 -58 52 -2 0 -28 -24 -57 -53z"/>
</g>
</svg>
