<?xml version="1.0" standalone="no"?>
<!DOCTYPE svg PUBLIC "-//W3C//DTD SVG 20010904//EN"
 "http://www.w3.org/TR/2001/REC-SVG-20010904/DTD/svg10.dtd">
<svg version="1.0" xmlns="http://www.w3.org/2000/svg"
 width="132.000000pt" height="140.000000pt" viewBox="0 0 132.000000 140.000000"
 preserveAspectRatio="xMidYMid meet">

<g transform="translate(0.000000,140.000000) scale(0.100000,-0.100000)"
fill="#000000" stroke="none">
<path d="M610 1318 c-11 -18 -20 -37 -20 -42 0 -12 1 -10 28 37 26 45 19 50
-8 5z"/>
<path d="M575 1229 c-6 -19 -21 -39 -35 -47 l-25 -13 25 3 c26 3 54 46 48 75
-2 9 -7 2 -13 -18z"/>
<path d="M582 1165 c-28 -20 -52 -38 -52 -40 0 -3 25 11 55 31 48 32 62 44 52
44 -1 0 -26 -16 -55 -35z"/>
<path d="M622 1134 c-66 -49 -81 -66 -33 -38 32 19 109 83 100 84 -3 0 -33
-21 -67 -46z"/>
<path d="M494 1098 l-19 -23 23 19 c21 18 27 26 19 26 -2 0 -12 -10 -23 -22z"/>
<path d="M649 1103 c-8 -9 -13 -26 -12 -37 1 -14 0 -15 -3 -4 -13 42 -54 20
-54 -29 0 -3 -10 3 -22 15 -21 19 -25 19 -48 6 -21 -13 -22 -14 -4 -9 20 5 23
1 28 -42 3 -26 7 -56 8 -65 1 -9 6 -16 11 -15 4 1 22 -17 40 -41 43 -59 42
-98 -5 -150 -19 -21 -37 -45 -40 -53 -4 -12 -7 -12 -21 0 -10 7 -17 21 -17 30
0 14 -2 14 -10 1 -7 -11 -3 -20 17 -37 l27 -22 19 32 c10 18 32 44 48 59 45
42 36 112 -21 163 -31 28 -50 68 -50 105 0 30 13 40 25 20 9 -15 35 7 35 29 1
14 3 13 15 -3 15 -20 35 -14 35 12 1 16 2 16 14 0 20 -26 29 -22 11 5 -16 25
-12 37 12 37 10 0 13 -7 9 -22 -3 -13 -3 -17 0 -10 4 9 9 10 19 2 11 -9 12 -7
8 9 -4 16 -1 19 17 14 15 -4 18 -9 11 -16 -16 -16 -13 -27 4 -21 9 4 15 0 15
-10 0 -18 15 -22 25 -6 10 17 25 11 25 -10 0 -22 20 -26 38 -8 9 9 12 7 12
-10 0 -37 -26 -77 -80 -122 -67 -56 -73 -81 -27 -128 40 -42 56 -94 36 -118
-7 -9 -40 -28 -74 -43 -34 -16 -65 -33 -69 -39 -4 -6 -13 -9 -21 -6 -8 4 -18
-1 -21 -10 -3 -9 -10 -13 -15 -10 -5 3 -9 -2 -9 -10 0 -23 15 -19 28 7 6 12
11 16 11 9 3 -51 -50 -67 -106 -32 -34 21 -35 23 -35 80 1 35 1 35 -10 -8 -10
-39 -9 -45 12 -67 23 -24 47 -31 152 -44 12 -2 68 -53 79 -73 9 -16 7 -19 -8
-16 -14 2 -18 -3 -16 -25 1 -19 -2 -25 -10 -21 -8 5 -8 3 1 -7 9 -9 15 -10 23
-2 8 8 8 13 0 17 -20 12 -12 35 9 29 11 -3 26 0 34 6 11 9 15 4 21 -26 7 -40
-10 -63 -46 -63 -10 0 -24 -2 -31 -5 -9 -4 -19 4 -26 17 -9 20 -11 20 -11 4
-1 -13 -6 -16 -18 -11 -33 12 -38 10 -36 -17 2 -28 -10 -37 -22 -18 -3 6 -14
10 -23 9 -14 0 -14 -2 -2 -6 8 -3 20 -12 27 -20 17 -21 36 -6 29 23 -7 26 4
30 32 13 25 -16 105 -3 125 19 20 23 31 62 18 62 -6 0 -11 9 -11 21 0 16 -4
19 -20 14 -16 -5 -20 -2 -20 15 0 12 -4 19 -9 16 -4 -3 -16 3 -25 13 -10 11
-31 25 -47 31 -17 7 -29 20 -29 30 0 31 54 74 114 93 75 24 90 47 75 116 -6
28 -14 49 -18 46 -5 -2 -18 6 -31 19 -31 34 -20 74 30 112 44 33 80 90 80 126
0 34 -10 41 -32 21 -17 -15 -18 -15 -18 5 0 29 -19 38 -34 16 -12 -16 -14 -15
-20 10 -11 43 -99 64 -127 29z"/>
<path d="M720 1050 c0 -5 5 -10 11 -10 5 0 7 5 4 10 -3 6 -8 10 -11 10 -2 0
-4 -4 -4 -10z"/>
<path d="M965 1040 c10 -11 20 -20 23 -20 3 0 -3 9 -13 20 -10 11 -20 20 -23
20 -3 0 3 -9 13 -20z"/>
<path d="M200 993 c0 -5 10 -18 23 -29 l22 -19 -20 25 c-11 14 -21 27 -22 29
-2 2 -3 0 -3 -6z"/>
<path d="M1029 927 c-5 -46 -12 -64 -34 -85 -27 -26 -27 -26 -22 -4 3 13 0 25
-8 30 -7 4 -15 16 -18 27 -3 13 -5 9 -6 -12 -1 -38 -21 -56 -21 -19 0 28 -9
33 -28 14 -8 -8 -14 -5 -21 15 -15 38 -22 34 -9 -4 8 -25 8 -33 -3 -40 -8 -5
-9 -9 -3 -9 6 0 17 7 24 15 17 21 30 19 30 -5 0 -24 8 -25 32 -3 17 15 18 15
18 -10 0 -27 13 -36 25 -17 12 20 25 9 19 -15 -6 -25 8 -35 21 -15 11 18 23
10 18 -11 -5 -18 -3 -20 14 -15 16 5 21 2 19 -11 0 -11 5 -17 17 -17 58 5 -48
-95 -108 -101 -45 -5 -95 -27 -105 -45 -7 -12 -7 -28 0 -45 5 -14 10 -43 11
-63 1 -32 2 -34 8 -12 4 14 18 31 31 38 l25 14 -27 -6 c-23 -5 -29 -2 -34 18
-10 42 4 65 49 77 73 20 100 32 134 62 l33 29 37 -22 c36 -21 37 -21 13 -1
-14 11 -28 21 -32 21 -5 0 -8 12 -8 26 0 22 -3 24 -22 18 -21 -6 -21 -5 -9 10
20 23 -1 45 -24 26 -14 -12 -15 -10 -10 13 8 30 -5 36 -25 12 -20 -24 -21 -13
-4 44 8 29 14 71 12 94 -3 39 -3 38 -9 -16z"/>
<path d="M375 951 c-3 -5 -2 -12 3 -15 5 -3 9 1 9 9 0 17 -3 19 -12 6z"/>
<path d="M186 941 c-3 -5 0 -13 7 -19 10 -8 13 -6 13 9 0 20 -11 25 -20 10z"/>
<path d="M703 900 c0 -25 2 -35 4 -22 2 12 2 32 0 45 -2 12 -4 2 -4 -23z"/>
<path d="M659 913 c-5 -67 -5 -80 1 -98 4 -12 8 8 9 48 1 37 -1 67 -4 67 -3 0
-6 -8 -6 -17z"/>
<path d="M174 889 c-3 -6 -2 -15 3 -20 5 -5 9 -1 9 11 0 23 -2 24 -12 9z"/>
<path d="M814 865 c-9 -13 -14 -30 -11 -37 4 -8 6 -6 6 5 1 9 10 26 21 37 11
11 16 20 10 20 -5 0 -17 -11 -26 -25z"/>
<path d="M162 818 c2 -6 11 -13 19 -16 12 -3 12 -2 0 6 -11 8 -11 10 0 15 10
4 8 6 -4 6 -10 1 -17 -4 -15 -11z"/>
<path d="M457 813 c-11 -11 -8 -20 7 -20 8 0 12 6 9 14 -6 15 -7 15 -16 6z"/>
<path d="M396 803 c-10 -11 -7 -25 5 -18 6 4 17 -1 25 -11 14 -18 14 -18 4 3
-12 25 -25 35 -34 26z"/>
<path d="M350 765 c0 -22 -3 -25 -25 -19 -22 5 -25 3 -24 -17 1 -17 3 -19 6
-6 3 12 11 15 29 11 20 -5 24 -2 24 16 0 19 2 20 15 10 9 -7 17 -11 19 -9 2 2
-7 12 -20 22 -24 18 -24 18 -24 -8z"/>
<path d="M666 777 c3 -10 9 -15 12 -12 3 3 0 11 -7 18 -10 9 -11 8 -5 -6z"/>
<path d="M720 786 c0 -2 8 -10 18 -17 15 -13 16 -12 3 4 -13 16 -21 21 -21 13z"/>
<path d="M165 770 c-8 -13 3 -30 18 -30 7 0 6 4 -3 10 -13 9 -13 11 0 20 9 6
10 10 3 10 -6 0 -15 -4 -18 -10z"/>
<path d="M175 709 c-4 -6 -5 -12 -2 -15 2 -3 7 2 10 11 7 17 1 20 -8 4z"/>
<path d="M250 698 c0 -7 5 -20 11 -28 8 -12 9 -9 4 9 -6 19 -4 23 9 18 9 -4
16 -2 16 3 0 6 -9 10 -20 10 -11 0 -20 -6 -20 -12z"/>
<path d="M836 643 c-16 -19 -23 -33 -15 -31 14 3 55 56 48 62 -2 2 -17 -12
-33 -31z"/>
<path d="M214 657 c-2 -7 0 -24 6 -38 10 -24 10 -23 5 4 -5 26 -4 27 22 21 31
-8 29 -3 -5 15 -18 9 -23 9 -28 -2z"/>
<path d="M532 620 c0 -14 2 -19 5 -12 2 6 2 18 0 25 -3 6 -5 1 -5 -13z"/>
<path d="M173 604 c-4 -10 5 -26 22 -42 l28 -27 -22 30 c-20 27 -21 30 -5 35
16 6 17 7 0 13 -11 4 -19 1 -23 -9z"/>
<path d="M856 605 c-3 -8 -1 -15 4 -15 6 0 10 7 10 15 0 8 -2 15 -4 15 -2 0
-6 -7 -10 -15z"/>
<path d="M806 583 c-6 -14 -5 -15 5 -6 7 7 10 15 7 18 -3 3 -9 -2 -12 -12z"/>
<path d="M560 565 c-11 -13 -15 -13 -21 -3 -7 10 -9 9 -9 -4 0 -26 18 -31 30
-8 6 11 16 17 22 14 7 -4 8 -3 4 4 -9 15 -11 15 -26 -3z"/>
<path d="M446 538 c10 -14 21 -24 23 -22 3 3 -6 15 -18 27 l-24 22 19 -27z"/>
<path d="M1160 546 c0 -2 7 -6 15 -10 8 -3 15 -1 15 4 0 6 -7 10 -15 10 -8 0
-15 -2 -15 -4z"/>
<path d="M230 534 c0 -3 14 -10 30 -15 17 -6 30 -15 30 -20 0 -19 -30 -68 -47
-78 -10 -6 -13 -11 -6 -11 15 0 63 58 63 76 0 9 4 13 9 10 4 -3 7 -18 5 -33
-4 -24 -3 -25 5 -8 17 35 12 44 -35 65 -51 22 -54 23 -54 14z"/>
<path d="M405 517 c10 -15 20 -25 23 -22 3 3 -5 16 -17 28 l-23 22 17 -28z"/>
<path d="M1120 516 c7 -7 13 -7 20 0 6 6 3 10 -10 10 -13 0 -16 -4 -10 -10z"/>
<path d="M975 500 c-11 -12 -25 -18 -34 -15 -13 5 -13 4 -4 -6 10 -10 15 -9
28 1 12 10 15 10 15 -5 0 -26 11 -11 14 19 4 31 4 31 -19 6z"/>
<path d="M1067 499 c7 -7 15 -10 18 -7 3 3 -2 9 -12 12 -14 6 -15 5 -6 -5z"/>
<path d="M341 468 c1 -22 3 -26 6 -13 7 28 23 43 23 22 0 -10 9 -37 20 -59 11
-23 20 -51 21 -62 1 -18 2 -17 9 4 4 14 6 43 5 64 -3 43 -32 76 -66 76 -15 0
-19 -7 -18 -32z m65 -12 c3 -8 4 -23 2 -33 -3 -13 -7 -9 -15 15 -12 31 1 48
13 18z"/>
<path d="M1014 488 c3 -15 26 -23 26 -8 0 6 -4 9 -9 6 -5 -4 -12 -1 -14 4 -3
6 -4 5 -3 -2z"/>
<path d="M1023 427 c-1 -26 0 -28 7 -12 11 26 12 45 3 45 -5 0 -9 -15 -10 -33z"/>
<path d="M490 415 c19 -19 36 -35 39 -35 3 0 -10 16 -29 35 -19 19 -36 35 -39
35 -3 0 10 -16 29 -35z"/>
<path d="M875 410 c-9 -16 -13 -30 -11 -30 3 0 12 14 21 30 9 17 13 30 11 30
-3 0 -12 -13 -21 -30z"/>
<path d="M1065 410 c3 -5 8 -10 11 -10 2 0 4 5 4 10 0 6 -5 10 -11 10 -5 0 -7
-4 -4 -10z"/>
<path d="M808 385 c-4 -4 -2 -19 3 -33 8 -20 5 -30 -13 -51 -13 -14 -4 -8 20
14 23 21 42 43 42 49 0 5 -9 1 -19 -8 -19 -17 -20 -17 -23 9 -2 15 -6 24 -10
20z"/>
<path d="M879 373 c-13 -16 -12 -17 4 -4 16 13 21 21 13 21 -2 0 -10 -8 -17
-17z"/>
<path d="M875 320 c-21 -28 -53 -62 -71 -77 -19 -14 -32 -28 -29 -31 7 -8 77
61 115 114 17 24 29 44 26 44 -2 0 -21 -23 -41 -50z"/>
<path d="M1085 360 c3 -5 8 -10 11 -10 2 0 4 5 4 10 0 6 -5 10 -11 10 -5 0 -7
-4 -4 -10z"/>
<path d="M1059 333 c-13 -16 -12 -17 4 -4 16 13 21 21 13 21 -2 0 -10 -8 -17
-17z"/>
<path d="M893 271 c-47 -22 -66 -50 -60 -89 4 -26 4 -26 6 4 1 39 34 70 92 88
24 8 35 14 24 15 -11 0 -39 -8 -62 -18z"/>
<path d="M128 263 c-10 -2 -18 -9 -18 -14 0 -14 16 -11 30 6 7 8 11 14 9 14
-2 -1 -12 -3 -21 -6z"/>
<path d="M434 258 c3 -10 9 -25 13 -35 5 -12 3 -14 -8 -8 -12 8 -12 6 0 -8 7
-9 24 -17 37 -17 19 0 24 5 24 25 0 25 0 25 28 8 15 -10 30 -22 34 -27 8 -12
21 -2 24 19 1 8 -4 11 -12 8 -9 -3 -14 2 -15 13 0 18 -1 18 -8 1 -6 -17 -8
-17 -20 -3 -20 24 -41 20 -41 -10 0 -30 -14 -24 -42 20 -11 17 -17 23 -14 14z"/>
<path d="M195 230 c-4 -6 -11 -8 -16 -5 -5 4 -9 1 -9 -4 0 -16 16 -13 30 4 7
8 10 15 7 15 -3 0 -9 -5 -12 -10z"/>
<path d="M230 198 c0 -4 7 -8 15 -8 8 0 15 4 15 8 0 5 -7 9 -15 9 -8 0 -15 -4
-15 -9z"/>
<path d="M310 195 c-11 -13 -15 -13 -21 -3 -6 9 -9 9 -9 1 0 -22 19 -24 40 -3
11 11 16 20 11 20 -5 0 -14 -7 -21 -15z"/>
<path d="M387 181 c9 -11 21 -18 25 -15 5 3 1 12 -9 20 -26 20 -35 17 -16 -5z"/>
<path d="M720 96 c0 -8 -3 -21 -6 -30 -3 -9 -2 -16 3 -16 5 0 10 13 11 30 1
17 0 30 -3 30 -3 0 -5 -6 -5 -14z"/>
<path d="M670 90 c0 -5 5 -10 11 -10 5 0 7 5 4 10 -3 6 -8 10 -11 10 -2 0 -4
-4 -4 -10z"/>
<path d="M760 38 c0 -10 17 -10 24 0 3 5 -1 9 -9 9 -8 0 -15 -4 -15 -9z"/>
</g>
</svg>
