<?xml version="1.0" standalone="no"?>
<!DOCTYPE svg PUBLIC "-//W3C//DTD SVG 20010904//EN"
 "http://www.w3.org/TR/2001/REC-SVG-20010904/DTD/svg10.dtd">
<svg version="1.0" xmlns="http://www.w3.org/2000/svg"
 width="170.000000pt" height="146.000000pt" viewBox="0 0 170.000000 146.000000"
 preserveAspectRatio="xMidYMid meet">
<metadata>
Created by potrace 1.16, written by Peter Selinger 2001-2019
</metadata>
<g transform="translate(0.000000,146.000000) scale(0.100000,-0.100000)"
fill="#000000" stroke="none">
<path d="M676 1335 c-13 -10 -23 -12 -30 -5 -17 17 -29 11 -23 -12 3 -12 1
-30 -4 -40 -7 -14 -7 -34 1 -68 26 -109 136 -140 205 -59 38 46 35 101 -9 145
-19 19 -41 35 -50 35 -29 3 -34 4 -42 12 -11 11 -27 8 -48 -8z m125 -54 c20
-20 29 -39 29 -61 0 -43 -47 -90 -90 -90 -44 0 -69 16 -85 53 -14 34 -15 33
37 85 13 13 28 27 33 32 19 17 47 10 76 -19z"/>
<path d="M1178 1254 l-26 -27 -27 21 c-22 18 -38 21 -83 18 -49 -2 -59 -7 -88
-39 -75 -81 -85 -242 -17 -278 41 -22 142 -15 199 13 79 39 99 83 85 180 -1 3
-13 21 -27 38 l-27 31 21 22 c12 11 25 17 29 13 4 -4 0 -13 -10 -20 -9 -7 -17
-16 -17 -20 0 -12 28 -5 51 13 23 19 24 19 5 40 -25 27 -36 26 -68 -5z m-138
-19 c0 -9 11 -21 25 -27 16 -7 25 -19 25 -34 0 -24 33 -50 50 -39 6 3 14 -5
19 -19 6 -13 18 -29 28 -34 32 -19 6 -63 -56 -94 -67 -34 -168 -40 -193 -10
-51 58 -12 222 62 259 33 17 40 16 40 -2z"/>
<path d="M460 1015 l-24 -25 29 -30 c27 -28 28 -31 11 -49 -9 -10 -19 -40 -21
-66 -8 -84 35 -133 145 -161 64 -16 122 -13 152 10 61 46 43 203 -32 279 -36
35 -42 38 -88 34 -53 -4 -65 -9 -100 -40 l-22 -21 -21 22 c-11 12 -17 27 -13
33 4 6 12 2 21 -10 22 -32 36 -14 16 20 -21 35 -23 35 -53 4z m247 -58 c53
-48 77 -194 39 -236 -22 -25 -103 -29 -168 -9 -72 21 -126 95 -83 112 8 3 20
17 25 31 6 15 14 23 20 20 17 -11 50 15 50 39 0 15 9 27 25 34 14 6 25 19 25
27 0 21 36 11 67 -18z"/>
<path d="M935 791 c-75 -18 -111 -65 -102 -134 10 -77 95 -119 165 -83 50 26
83 112 60 161 -8 18 -8 28 0 38 15 18 3 30 -15 15 -10 -8 -20 -8 -39 1 -27 12
-26 12 -69 2z m64 -75 c2 -5 12 -17 22 -27 15 -15 16 -23 8 -49 -11 -30 -52
-60 -83 -60 -46 0 -96 51 -96 98 0 25 37 71 64 81 20 8 75 -20 85 -43z"/>
<path d="M415 453 c16 -116 88 -260 157 -318 75 -64 100 -70 268 -70 168 0
193 6 268 70 72 61 141 199 158 318 l6 47 -432 0 -432 0 7 -47z m825 -3 c0
-76 -69 -216 -141 -288 -64 -64 -91 -72 -259 -72 -159 0 -189 7 -245 57 -46
42 -49 50 -25 88 26 42 36 43 147 9 96 -31 100 -29 138 47 11 23 25 43 30 43
6 1 22 -25 38 -57 15 -32 35 -61 44 -64 18 -7 93 29 119 58 31 34 7 31 -46 -5
-28 -19 -57 -33 -65 -30 -7 3 -23 30 -35 59 -34 85 -74 84 -111 -2 -22 -51
-32 -53 -138 -19 -41 13 -82 21 -93 18 -10 -2 -30 -20 -43 -39 l-23 -35 -16
23 c-32 51 -67 140 -73 188 l-6 51 402 0 401 0 0 -30z"/>
</g>
</svg>
