<?xml version="1.0" standalone="no"?>
<!DOCTYPE svg PUBLIC "-//W3C//DTD SVG 20010904//EN"
 "http://www.w3.org/TR/2001/REC-SVG-20010904/DTD/svg10.dtd">
<svg version="1.0" xmlns="http://www.w3.org/2000/svg"
 width="251.000000pt" height="247.000000pt" viewBox="0 0 251.000000 247.000000"
 preserveAspectRatio="xMidYMid meet">
<metadata>
Created by potrace 1.16, written by Peter Selinger 2001-2019
</metadata>
<g transform="translate(0.000000,247.000000) scale(0.100000,-0.100000)"
fill="#000000" stroke="none">
<path d="M478 2363 c-65 -67 -110 -122 -118 -145 l-13 -36 -52 39 c-112 84
-295 115 -295 50 0 -26 18 -37 70 -45 69 -10 135 -36 180 -72 l41 -32 -38 -13
c-44 -14 -253 -212 -253 -240 0 -23 50 -64 96 -79 35 -12 90 -10 125 5 13 5
17 -4 22 -53 7 -68 39 -161 73 -211 l23 -34 -43 -49 c-45 -49 -74 -127 -63
-167 3 -13 -7 -30 -30 -53 -51 -48 -75 -107 -72 -177 2 -49 -2 -63 -23 -92
-42 -55 -54 -110 -40 -178 11 -52 10 -63 -8 -102 -38 -84 -18 -180 50 -246 19
-18 37 -33 42 -33 4 0 21 -29 37 -64 31 -69 85 -119 141 -131 16 -3 36 -17 44
-30 62 -95 184 -131 285 -85 37 17 50 19 79 9 52 -17 123 -6 178 27 40 24 61
29 114 30 75 1 133 25 173 74 19 22 34 30 59 30 18 0 48 4 66 10 31 8 36 6 63
-25 43 -48 154 -121 224 -147 73 -26 226 -35 307 -19 202 42 385 226 427 429
34 163 -14 357 -117 472 l-38 44 48 64 c61 80 101 159 129 254 20 64 23 103
26 321 l5 247 -199 0 -199 0 -48 74 c-29 44 -108 133 -203 227 l-154 154 -157
-161 c-86 -89 -173 -186 -192 -217 -19 -31 -37 -57 -40 -57 -3 0 -22 26 -42
58 -113 175 -240 260 -416 277 l-68 7 4 33 c8 64 -46 165 -87 165 -9 0 -65
-48 -123 -107z m132 -46 c0 -16 -5 -38 -11 -50 -13 -25 -150 -167 -161 -167
-15 0 -8 85 8 110 9 14 46 55 82 92 68 70 82 72 82 15z m1256 -343 c24 -34 44
-66 44 -71 0 -5 -26 -14 -58 -21 -31 -6 -90 -28 -130 -47 -41 -19 -75 -35 -78
-35 -2 0 -5 57 -6 126 -3 108 -6 128 -20 138 -33 20 -52 -4 -58 -73 l-5 -63
-29 31 c-32 33 -54 39 -74 19 -22 -22 -12 -43 48 -103 48 -47 60 -66 60 -91
l0 -31 -72 -7 c-79 -7 -182 -37 -235 -69 -19 -11 -36 -17 -38 -15 -11 11 38
166 72 231 29 55 71 106 177 215 l140 143 109 -108 c60 -59 128 -136 153 -169z
m-1012 190 c97 -34 205 -141 291 -288 26 -44 26 -45 11 -98 -9 -29 -19 -83
-23 -120 l-8 -68 -62 61 c-35 33 -63 64 -63 68 0 9 -106 111 -115 111 -18 0
-45 -23 -45 -38 0 -10 24 -41 54 -71 l53 -52 -18 -37 c-11 -20 -19 -53 -19
-73 0 -31 -4 -37 -24 -41 -28 -6 -46 8 -46 33 0 15 -100 119 -115 119 -35 0
-57 -44 -34 -67 7 -7 0 -13 -27 -18 -44 -8 -105 -37 -122 -58 -9 -10 -27 -13
-65 -10 -62 6 -76 19 -121 113 -27 57 -31 76 -31 152 l0 88 154 154 c100 100
164 157 180 159 41 7 150 -4 195 -19z m-484 -132 c0 -11 -142 -148 -167 -161
-28 -14 -80 -14 -89 0 -7 12 94 121 141 150 29 19 115 27 115 11z m1950 -372
c0 -274 -35 -391 -168 -559 -18 -23 -20 -23 -45 -6 -25 16 -27 23 -28 89 0 61
-14 130 -44 223 -7 21 -4 22 70 25 61 2 80 7 89 21 20 32 -4 51 -73 57 l-62 5
91 90 c89 89 101 110 78 133 -22 22 -43 13 -93 -39 l-50 -50 -5 42 c-6 48 -30
70 -57 53 -14 -9 -19 -28 -21 -95 -2 -59 -8 -89 -19 -101 -15 -17 -19 -14 -80
42 -37 35 -96 76 -141 99 l-76 38 43 23 c118 60 217 78 429 79 l162 1 0 -170z
m-646 -21 c156 -52 275 -183 310 -339 15 -63 21 -150 12 -150 -2 0 -22 6 -44
14 -118 42 -268 25 -410 -45 -83 -41 -84 -41 -98 -20 -22 30 -93 69 -142 77
-30 5 -48 14 -62 34 -26 37 -26 41 13 77 56 53 94 68 180 68 42 0 77 4 77 9 0
5 12 -15 28 -45 53 -106 174 -130 253 -50 85 84 66 203 -42 259 -32 17 -55 22
-82 18 -49 -6 -111 -46 -126 -83 l-11 -28 -98 0 c-81 0 -104 -4 -139 -23 l-42
-22 -11 39 c-5 21 -19 50 -31 65 -27 34 -21 47 37 87 125 86 280 107 428 58z
m-597 -121 c39 -40 76 -83 82 -95 13 -26 15 -80 2 -87 -4 -3 -45 32 -90 78
-78 80 -81 85 -81 130 0 25 3 46 8 46 4 0 40 -33 79 -72z m-310 -34 c12 -8 32
-27 44 -43 21 -28 22 -29 55 -15 18 8 41 14 51 14 10 0 49 -31 87 -69 66 -66
68 -71 62 -105 -7 -34 -5 -37 23 -42 39 -8 102 -63 81 -71 -8 -3 -35 -26 -59
-51 l-44 -45 37 -19 37 -19 20 25 c10 13 40 32 64 42 56 21 107 9 149 -35 l29
-30 -35 -40 c-106 -125 -151 -315 -113 -479 8 -34 24 -81 35 -103 12 -22 18
-45 14 -50 -6 -11 -54 -8 -99 6 -17 5 -25 -2 -43 -40 -17 -35 -32 -51 -65 -65
-77 -35 -82 -31 -82 58 0 69 -3 83 -28 121 l-29 43 -28 -27 -28 -27 20 -40
c51 -98 -16 -208 -127 -208 -31 0 -36 3 -32 18 20 61 20 62 1 62 -11 0 -28 3
-39 6 -16 4 -24 -3 -38 -30 -25 -54 -70 -78 -135 -73 -59 4 -95 30 -118 84
-19 44 -18 72 6 118 l20 39 -24 25 c-21 21 -27 23 -41 11 -22 -19 -42 -59 -50
-103 -8 -44 -13 -45 -49 -12 -50 46 -60 117 -25 174 l20 33 -22 24 c-32 34
-43 30 -70 -20 -26 -49 -37 -48 -65 5 -31 61 -6 140 58 179 41 25 93 25 140 1
l37 -18 26 27 c24 25 25 27 7 43 -49 45 -151 60 -217 33 -32 -14 -35 -13 -40
5 -12 38 17 121 40 113 6 -3 22 7 35 21 23 25 23 26 7 54 -37 63 -10 166 53
198 35 18 105 16 142 -3 30 -15 31 -15 57 11 l26 26 -24 20 c-26 22 -121 52
-148 47 -15 -2 -18 3 -15 31 7 94 117 150 204 105 27 -14 32 -14 39 -2 43 77
137 105 206 62z m946 -25 c26 -12 47 -47 47 -80 0 -31 -44 -69 -80 -69 -36 0
-80 38 -80 69 0 31 20 68 44 79 28 14 40 14 69 1z m241 -379 c62 -20 157 -81
203 -131 113 -124 151 -325 92 -484 -136 -368 -628 -429 -846 -104 -189 282
-36 659 298 734 77 17 164 12 253 -15z"/>
<path d="M718 1320 c-15 -4 -44 -18 -64 -30 l-36 -23 29 -28 29 -29 39 21 c45
23 102 20 144 -8 22 -14 25 -14 49 11 25 24 25 26 8 45 -36 40 -135 60 -198
41z"/>
<path d="M574 824 c-43 -65 -48 -160 -11 -231 24 -45 36 -49 64 -20 24 24 25
25 8 50 -23 35 -23 106 0 145 19 31 19 32 -5 57 -29 31 -35 31 -56 -1z"/>
<path d="M946 631 l-28 -29 47 -27 c80 -47 182 -43 242 10 l28 24 -26 26 -26
27 -34 -21 c-43 -26 -95 -27 -137 -1 -18 11 -34 20 -35 20 -2 0 -16 -13 -31
-29z"/>
<path d="M1890 968 c-148 -75 -95 -298 70 -298 120 0 197 132 138 235 -25 43
-93 85 -138 85 -14 0 -46 -10 -70 -22z m103 -69 c26 -12 47 -47 47 -80 0 -31
-44 -69 -80 -69 -39 0 -80 39 -80 75 0 29 49 85 74 85 8 0 26 -5 39 -11z"/>
</g>
</svg>
