<?xml version="1.0" standalone="no"?>
<!DOCTYPE svg PUBLIC "-//W3C//DTD SVG 20010904//EN"
 "http://www.w3.org/TR/2001/REC-SVG-20010904/DTD/svg10.dtd">
<svg version="1.0" xmlns="http://www.w3.org/2000/svg"
 width="139.000000pt" height="147.000000pt" viewBox="0 0 139.000000 147.000000"
 preserveAspectRatio="xMidYMid meet">

<g transform="translate(0.000000,147.000000) scale(0.100000,-0.100000)"
fill="#000000" stroke="none">
<path d="M1034 1428 c-19 -23 -19 -23 1 -7 11 10 29 19 40 22 19 4 19 5 -1 6
-11 0 -29 -9 -40 -21z"/>
<path d="M866 1405 c-10 -8 -23 -12 -27 -9 -5 3 -6 -2 -3 -11 6 -14 10 -13 33
7 14 13 28 24 30 26 2 1 0 2 -5 2 -5 0 -18 -7 -28 -15z"/>
<path d="M874 1379 c-10 -12 -32 -28 -49 -35 -16 -7 -24 -13 -16 -14 18 0 79
41 86 58 6 17 1 15 -21 -9z"/>
<path d="M1100 1371 c0 -5 5 -13 10 -16 6 -3 10 -2 10 4 0 5 -4 13 -10 16 -5
3 -10 2 -10 -4z"/>
<path d="M739 1323 l-24 -26 27 19 c15 10 28 22 28 27 0 12 -5 8 -31 -20z"/>
<path d="M1130 1330 c0 -8 5 -22 10 -30 9 -13 10 -13 10 0 0 8 -5 22 -10 30
-9 13 -10 13 -10 0z"/>
<path d="M515 1300 c-16 -16 -25 -30 -21 -30 5 0 17 11 28 25 11 14 24 23 29
20 5 -4 9 -1 9 4 0 19 -15 12 -45 -19z"/>
<path d="M881 1303 c-10 -26 -10 -27 4 -9 8 11 15 23 15 28 0 15 -7 8 -19 -19z"/>
<path d="M749 1303 c-13 -16 -12 -17 4 -4 9 7 17 15 17 17 0 8 -8 3 -21 -13z"/>
<path d="M280 1269 c0 -5 5 -7 10 -4 6 3 10 8 10 11 0 2 -4 4 -10 4 -5 0 -10
-5 -10 -11z"/>
<path d="M708 1255 c-3 -14 -2 -25 2 -25 4 0 10 11 12 25 3 14 2 25 -2 25 -4
0 -10 -11 -12 -25z"/>
<path d="M824 1238 l-29 -33 33 29 c30 28 37 36 29 36 -2 0 -16 -15 -33 -32z"/>
<path d="M560 1258 c0 -4 11 -23 24 -42 27 -40 40 -114 26 -150 -7 -20 -6 -24
5 -20 21 8 43 -44 46 -106 2 -51 -1 -58 -34 -94 -34 -37 -38 -39 -50 -22 -7
10 -19 38 -26 62 -17 58 -25 50 -10 -9 6 -25 22 -56 35 -68 13 -12 24 -28 24
-35 0 -18 -34 -35 -67 -32 -15 1 -38 -4 -50 -10 -32 -18 -42 -15 -49 16 -4 15
-19 38 -33 52 -35 33 -51 71 -52 128 -1 26 -3 39 -6 29 -4 -16 -7 -15 -24 7
-10 13 -19 28 -19 33 0 5 -12 20 -27 34 -30 27 -28 22 30 -59 16 -22 30 -57
33 -77 5 -42 30 -95 44 -95 11 0 64 -100 56 -107 -2 -3 -15 2 -28 11 -38 27
-41 18 -3 -15 19 -17 32 -36 28 -42 -3 -5 -1 -7 5 -3 6 3 13 -3 17 -14 3 -11
20 -28 37 -37 16 -10 39 -34 49 -53 15 -27 18 -29 14 -10 -6 24 -5 24 9 6 9
-11 16 -22 16 -25 0 -3 14 -14 30 -23 17 -9 35 -30 41 -45 6 -15 17 -36 26
-45 18 -20 11 -33 -26 -53 -36 -18 -59 -3 -71 45 l-8 35 -1 -32 c-1 -18 -6
-33 -13 -33 -22 0 -78 45 -89 72 -6 15 -16 25 -21 22 -6 -4 -6 -9 -2 -13 5 -3
15 -18 23 -33 14 -26 64 -58 93 -58 8 0 23 -9 32 -19 14 -15 15 -24 7 -39 -6
-11 -7 -22 -4 -26 12 -12 20 -6 19 15 -1 34 41 57 119 64 87 8 97 15 22 15
-68 0 -71 9 -21 64 24 26 50 43 82 51 37 10 41 13 19 14 -24 1 -26 3 -17 21
19 36 81 70 127 70 25 0 43 5 43 11 0 7 -12 10 -30 7 -52 -8 -27 43 35 71 22
10 42 29 53 51 18 36 62 55 62 27 0 -8 -10 -19 -22 -24 -19 -9 -14 -10 23 -6
46 5 77 -11 45 -23 -9 -3 -16 -16 -16 -28 0 -11 -13 -37 -30 -56 -17 -20 -26
-38 -21 -45 8 -10 8 -16 -4 -65 -6 -24 -5 -23 10 3 10 17 14 39 11 53 -4 16 0
30 14 44 11 11 23 34 27 50 3 16 14 32 24 35 11 4 19 10 19 14 0 15 -25 31
-47 31 -16 0 -23 6 -23 20 0 15 -7 20 -26 20 -20 0 -25 4 -20 16 5 13 3 14 -6
6 -7 -5 -24 -12 -38 -15 l-25 -4 27 -2 26 -1 -21 -40 c-12 -22 -27 -40 -34
-40 -17 0 -83 -60 -83 -75 0 -7 -16 -22 -36 -34 -42 -25 -44 -25 -44 -7 0 17
-50 79 -58 71 -3 -3 4 -15 15 -28 33 -35 36 -61 12 -101 -11 -20 -26 -36 -32
-36 -6 0 -19 -7 -29 -16 -14 -14 -20 -14 -33 -4 -17 14 -21 0 -4 -17 8 -8 7
-16 -2 -31 -12 -20 -14 -18 -40 26 -15 26 -37 53 -50 60 -21 11 -69 72 -69 87
0 3 16 5 35 5 31 0 36 -4 53 -42 10 -24 26 -49 35 -57 15 -12 17 -10 16 15 0
24 -2 26 -8 9 -8 -19 -8 -19 -19 2 -22 40 -14 67 23 85 18 9 36 14 38 10 2 -4
2 -2 1 5 -4 15 22 37 35 29 5 -3 29 14 54 38 25 24 56 46 69 49 12 4 35 17 51
29 l27 23 -26 12 c-21 10 -24 10 -14 -2 18 -22 -24 -38 -84 -32 l-51 5 50 -14
50 -14 -45 4 c-25 2 -54 7 -65 10 -11 4 -4 -1 15 -11 19 -9 37 -18 39 -20 7
-4 -25 -31 -47 -37 -12 -4 -22 -12 -22 -18 0 -7 -15 -9 -41 -5 -34 4 -38 3
-23 -7 15 -11 12 -15 -28 -34 -57 -28 -73 -27 -128 4 l-45 26 24 -26 c31 -33
22 -43 -17 -20 -51 30 -68 97 -19 73 20 -9 20 -9 5 4 -10 8 -18 16 -18 19 0 3
21 11 48 18 26 7 71 24 100 38 29 14 69 25 88 25 19 -1 31 3 28 8 -3 5 -10 7
-15 4 -5 -4 -9 -2 -9 4 0 30 109 58 165 42 21 -5 33 -6 30 0 -4 5 -13 9 -21 9
-26 0 -15 19 24 39 20 11 33 20 29 21 -4 0 -22 -7 -39 -16 -50 -26 -86 -34
-92 -21 -3 9 -7 9 -13 1 -4 -6 -19 -15 -33 -19 -14 -4 -35 -17 -48 -28 -19
-18 -92 -50 -99 -44 -9 10 37 72 61 83 17 7 27 13 22 14 -6 0 -5 5 1 11 6 6 9
18 6 25 -7 18 20 60 48 75 12 6 51 15 88 20 36 5 79 12 95 15 22 5 27 3 20 -7
-6 -12 -5 -12 9 0 28 22 34 22 -110 6 -51 -5 -73 -4 -73 3 0 23 62 81 98 91
24 7 28 9 10 7 -16 -2 -28 -1 -28 1 0 3 13 24 28 47 24 35 26 42 11 42 -9 0
-15 -6 -12 -13 3 -7 -7 -24 -21 -38 -14 -14 -22 -25 -18 -25 3 0 -5 -8 -18
-17 -14 -9 -29 -23 -33 -30 -4 -7 -16 -13 -26 -13 -10 0 -26 -10 -37 -22 -19
-23 -19 -23 2 -5 11 9 26 17 32 17 17 0 3 -52 -16 -64 -33 -19 -62 -60 -62
-87 0 -16 -4 -29 -9 -29 -5 0 -11 31 -13 69 -2 48 -9 76 -21 89 -11 12 -16 30
-14 52 5 45 -11 93 -44 132 -16 18 -28 30 -29 26z"/>
<path d="M1011 1218 c0 -21 -5 -38 -9 -38 -5 0 -9 -6 -9 -14 0 -8 7 -12 16 -9
10 3 6 -4 -8 -16 -29 -26 -18 -28 15 -2 13 10 20 21 17 25 -4 3 -10 25 -14 49
l-6 42 -2 -37z"/>
<path d="M1114 1208 c-20 -40 -50 -79 -55 -73 -11 10 -2 -113 9 -132 17 -31
24 -29 12 3 -18 46 -11 93 25 164 19 39 33 70 30 70 -2 0 -12 -15 -21 -32z"/>
<path d="M685 1204 l-30 -14 30 6 c31 6 41 11 34 18 -2 2 -17 -2 -34 -10z"/>
<path d="M757 1197 c17 -7 35 -15 39 -19 10 -11 24 -10 24 0 0 5 -17 14 -39
20 -49 15 -66 14 -24 -1z"/>
<path d="M348 1175 c12 -9 26 -30 31 -48 6 -23 9 -26 10 -11 1 24 -34 74 -52
74 -6 0 -2 -7 11 -15z"/>
<path d="M471 1154 c11 -13 17 -37 16 -77 0 -45 5 -63 22 -80 11 -13 21 -31
21 -40 0 -9 5 -17 10 -17 16 0 12 14 -15 50 -20 27 -25 46 -25 95 0 52 -3 62
-22 74 -22 13 -22 13 -7 -5z"/>
<path d="M1187 1117 c-3 -8 -1 -20 4 -28 6 -10 9 -7 9 14 0 29 -5 35 -13 14z"/>
<path d="M665 1100 c27 -12 43 -12 25 0 -8 5 -22 9 -30 9 -10 0 -8 -3 5 -9z"/>
<path d="M390 1070 c0 -5 5 -10 11 -10 5 0 7 5 4 10 -3 6 -8 10 -11 10 -2 0
-4 -4 -4 -10z"/>
<path d="M1155 1027 c-39 -66 -46 -82 -52 -122 -5 -38 20 -126 32 -113 3 3 -2
22 -11 43 -19 46 -8 102 33 172 14 24 24 46 22 48 -3 2 -13 -11 -24 -28z"/>
<path d="M444 1020 c9 -13 16 -32 16 -42 0 -10 5 -18 11 -18 15 0 1 41 -23 65
l-21 20 17 -25z"/>
<path d="M867 942 c-19 -20 -23 -37 -7 -27 10 6 33 45 27 45 -2 0 -11 -8 -20
-18z"/>
<path d="M1220 912 c0 -4 10 -13 23 -21 22 -14 22 -14 3 8 -20 22 -26 25 -26
13z"/>
<path d="M970 906 c0 -2 8 -10 18 -17 15 -13 16 -12 3 4 -13 16 -21 21 -21 13z"/>
<path d="M501 876 c8 -10 19 -31 26 -45 8 -18 12 -21 12 -9 1 9 -11 30 -25 45
-15 15 -20 19 -13 9z"/>
<path d="M718 883 c7 -3 16 -2 19 1 4 3 -2 6 -13 5 -11 0 -14 -3 -6 -6z"/>
<path d="M200 876 c0 -2 8 -10 18 -17 15 -13 16 -12 3 4 -13 16 -21 21 -21 13z"/>
<path d="M246 847 c3 -10 9 -15 12 -12 3 3 0 11 -7 18 -10 9 -11 8 -5 -6z"/>
<path d="M295 805 c30 -25 59 -39 51 -26 -4 6 -22 18 -39 27 -30 14 -31 14
-12 -1z"/>
<path d="M1186 782 c-3 -5 1 -9 9 -9 8 0 12 4 9 9 -3 4 -7 8 -9 8 -2 0 -6 -4
-9 -8z"/>
<path d="M167 753 c-4 -3 0 -14 9 -24 9 -10 20 -33 24 -51 7 -29 8 -30 9 -7 1
14 -6 34 -14 45 -17 23 -19 38 -3 28 7 -4 8 -3 4 4 -8 13 -19 15 -29 5z"/>
<path d="M271 680 c-1 -8 3 -22 9 -30 5 -9 5 -17 -1 -20 -5 -4 0 -15 11 -25
20 -18 21 -18 14 1 -7 18 -6 18 12 3 35 -30 49 -32 17 -3 -17 16 -38 43 -47
59 -8 17 -15 23 -15 15z"/>
<path d="M570 625 c14 -8 32 -14 40 -14 8 0 0 6 -19 14 -42 19 -54 19 -21 0z"/>
<path d="M144 585 c4 -24 16 -30 16 -7 0 12 -4 22 -9 22 -5 0 -8 -7 -7 -15z"/>
<path d="M730 580 c-6 -11 -8 -20 -6 -20 3 0 10 9 16 20 6 11 8 20 6 20 -3 0
-10 -9 -16 -20z"/>
<path d="M1031 557 c-6 -16 -11 -32 -11 -36 0 -4 -12 -13 -27 -20 -21 -10 -24
-14 -13 -21 9 -5 20 -4 28 2 17 15 44 78 38 92 -2 6 -9 -2 -15 -17z"/>
<path d="M371 547 c-1 -23 23 -70 45 -88 15 -11 14 -8 -2 16 -12 17 -26 44
-32 60 -6 18 -11 23 -11 12z"/>
<path d="M173 522 c9 -10 17 -27 17 -37 0 -10 3 -16 6 -12 11 11 -5 55 -23 61
-16 6 -16 6 0 -12z"/>
<path d="M320 510 c0 -5 5 -10 11 -10 5 0 7 5 4 10 -3 6 -8 10 -11 10 -2 0 -4
-4 -4 -10z"/>
<path d="M367 480 c6 -8 16 -31 21 -50 9 -32 10 -33 11 -8 1 15 -9 37 -21 50
-13 13 -18 17 -11 8z"/>
<path d="M1049 423 c2 -35 -2 -52 -20 -77 -19 -26 -20 -28 -3 -16 10 8 22 20
26 25 10 13 10 102 1 108 -5 3 -6 -15 -4 -40z"/>
<path d="M930 440 c0 -11 2 -20 4 -20 2 0 6 9 9 20 3 11 1 20 -4 20 -5 0 -9
-9 -9 -20z"/>
<path d="M245 410 c3 -5 8 -10 11 -10 2 0 4 5 4 10 0 6 -5 10 -11 10 -5 0 -7
-4 -4 -10z"/>
<path d="M917 384 c-11 -14 -17 -28 -14 -30 3 -3 15 9 27 25 12 17 18 31 13
31 -4 0 -16 -12 -26 -26z"/>
<path d="M390 383 c0 -6 8 -17 18 -24 16 -13 16 -13 2 6 -8 11 -16 22 -17 24
-2 2 -3 0 -3 -6z"/>
<path d="M270 354 c0 -26 84 -143 95 -132 2 2 -12 21 -31 42 -22 24 -33 44
-29 54 3 9 3 13 -1 9 -5 -4 -14 3 -21 15 -7 13 -12 18 -13 12z"/>
<path d="M448 320 c6 -8 12 -22 12 -32 0 -10 4 -18 9 -18 14 0 1 38 -18 52
-13 10 -14 10 -3 -2z"/>
<path d="M826 318 c4 -6 -5 -21 -22 -35 l-29 -24 27 12 c15 7 35 23 43 36 15
22 14 23 -5 23 -14 0 -19 -4 -14 -12z"/>
<path d="M639 303 c-13 -16 -12 -17 4 -4 16 13 21 21 13 21 -2 0 -10 -8 -17
-17z"/>
<path d="M990 285 l-25 -15 25 3 c22 2 25 -2 23 -28 -1 -22 -15 -42 -53 -76
-41 -38 -48 -48 -34 -53 9 -4 19 -4 22 -1 3 3 -1 5 -8 5 -8 0 7 21 33 46 50
48 65 83 51 114 -8 17 -11 17 -34 5z"/>
<path d="M640 256 c0 -8 4 -17 9 -20 5 -4 7 3 4 14 -6 23 -13 26 -13 6z"/>
<path d="M887 257 c3 -5 -5 -21 -18 -35 -14 -16 -8 -13 14 7 20 19 37 35 37
36 0 0 -9 1 -19 1 -11 0 -17 -4 -14 -9z"/>
<path d="M712 251 c-31 -6 -32 -7 -17 -26 12 -16 14 -17 9 -2 -5 13 -1 17 19
17 14 0 29 5 32 10 3 6 3 9 -2 9 -4 -1 -23 -4 -41 -8z"/>
<path d="M909 233 c-13 -16 -12 -17 4 -4 16 13 21 21 13 21 -2 0 -10 -8 -17
-17z"/>
<path d="M481 182 c-1 -7 6 -27 15 -43 12 -25 18 -28 30 -18 8 6 14 14 14 17
0 3 -6 0 -12 -6 -10 -10 -16 -5 -30 25 -9 21 -17 32 -17 25z"/>
<path d="M830 150 c0 -5 5 -10 10 -10 6 0 10 5 10 10 0 6 -4 10 -10 10 -5 0
-10 -4 -10 -10z"/>
<path d="M380 145 c0 -13 32 -54 46 -59 9 -3 4 9 -12 29 -25 34 -34 41 -34 30z"/>
<path d="M493 94 c0 -16 13 -19 21 -5 3 5 0 11 -7 14 -8 3 -14 -1 -14 -9z"/>
<path d="M455 80 c3 -5 11 -10 16 -10 6 0 7 5 4 10 -3 6 -11 10 -16 10 -6 0
-7 -4 -4 -10z"/>
</g>
</svg>
