<?xml version="1.0" standalone="no"?>
<!DOCTYPE svg PUBLIC "-//W3C//DTD SVG 20010904//EN"
 "http://www.w3.org/TR/2001/REC-SVG-20010904/DTD/svg10.dtd">
<svg version="1.0" xmlns="http://www.w3.org/2000/svg"
 width="254.000000pt" height="247.000000pt" viewBox="0 0 254.000000 247.000000"
 preserveAspectRatio="xMidYMid meet">
<metadata>
Created by potrace 1.16, written by Peter Selinger 2001-2019
</metadata>
<g transform="translate(0.000000,247.000000) scale(0.100000,-0.100000)"
fill="#000000" stroke="none">
<path d="M1190 2269 c-46 -14 -96 -53 -115 -89 -21 -41 -36 -47 -187 -75 -226
-41 -394 -109 -539 -216 -210 -156 -325 -420 -263 -602 19 -56 89 -131 137
-146 l33 -11 93 -443 c74 -351 97 -447 114 -465 l20 -22 767 0 767 0 20 22
c17 18 40 114 114 464 l92 442 39 17 c49 21 98 70 124 121 29 60 25 216 -8
306 -102 274 -372 462 -757 529 -157 27 -192 41 -216 85 -37 68 -150 108 -235
83z m116 -167 c37 -74 99 -107 248 -133 369 -64 588 -193 689 -409 24 -51 32
-81 35 -147 4 -80 4 -83 -25 -112 -33 -32 -35 -33 -243 -50 -69 -6 -190 -18
-270 -27 -203 -23 -776 -23 -980 0 -80 9 -201 21 -270 27 -206 17 -211 18
-242 49 -24 25 -28 36 -28 88 0 271 285 508 688 572 105 17 164 31 197 47 35
18 85 62 85 77 0 5 8 18 17 28 24 27 84 21 99 -10z m-810 -954 c5 -7 29 -189
54 -405 35 -299 43 -393 33 -393 -15 0 -6 -37 -98 405 -41 198 -77 370 -80
383 -5 20 -2 22 39 22 25 0 48 -6 52 -12z m1599 -10 c-3 -13 -39 -185 -80
-383 -41 -198 -77 -370 -80 -382 -3 -13 -11 -23 -18 -23 -10 0 -2 95 35 403
26 221 47 403 48 405 0 1 23 2 50 2 47 0 50 -1 45 -22z m-1426 -4 c4 -4 70
-706 71 -756 0 -27 -2 -28 -48 -28 l-48 0 -43 373 c-24 204 -45 384 -48 400
l-6 27 59 -6 c33 -4 61 -8 63 -10z m1277 -11 c-3 -16 -24 -196 -48 -400 l-42
-373 -48 0 c-32 0 -48 4 -48 13 -1 24 61 732 66 754 3 18 12 23 47 26 23 2 50
4 60 5 15 2 18 -3 13 -25z m-1090 -7 c1 0 9 -136 18 -301 9 -165 19 -337 22
-382 l6 -83 -56 0 c-31 0 -56 4 -56 8 0 17 -59 688 -64 730 l-6 43 68 -7 c37
-4 68 -7 68 -8z m918 -28 c-5 -42 -64 -714 -64 -730 0 -4 -25 -8 -55 -8 -37 0
-55 4 -55 13 0 6 9 167 20 357 11 190 20 357 20 372 0 24 4 27 43 31 105 9 97
12 91 -35z m-731 -250 c4 -149 7 -320 7 -380 l0 -108 -49 0 -49 0 -6 63 c-6
67 -36 625 -36 670 0 27 1 27 63 27 l64 0 6 -272z m171 266 c14 -5 16 -48 16
-380 l0 -374 -63 0 -64 0 -6 167 c-4 91 -7 262 -7 380 l0 213 54 0 c30 0 61
-3 70 -6z m196 -207 c0 -118 -3 -289 -7 -380 l-6 -167 -64 0 -63 0 0 373 c0
206 3 377 7 380 3 4 35 7 70 7 l63 0 0 -213z m180 186 c0 -45 -30 -603 -36
-670 l-6 -63 -49 0 -49 0 0 108 c0 60 3 231 7 380 l6 272 64 0 c62 0 63 0 63
-27z"/>
</g>
</svg>
