<?xml version="1.0" standalone="no"?>
<!DOCTYPE svg PUBLIC "-//W3C//DTD SVG 20010904//EN"
 "http://www.w3.org/TR/2001/REC-SVG-20010904/DTD/svg10.dtd">
<svg version="1.0" xmlns="http://www.w3.org/2000/svg"
 width="180.000000pt" height="183.000000pt" viewBox="0 0 180.000000 183.000000"
 preserveAspectRatio="xMidYMid meet">
<metadata>
Created by potrace 1.16, written by Peter Selinger 2001-2019
</metadata>
<g transform="translate(0.000000,183.000000) scale(0.100000,-0.100000)"
fill="#000000" stroke="none">
<path d="M780 1744 c-98 -26 -194 -104 -253 -205 -67 -114 -114 -320 -103
-448 5 -61 4 -66 -26 -99 -57 -65 -73 -115 -72 -227 0 -115 15 -179 67 -281
96 -190 301 -370 489 -429 106 -33 231 -35 315 -3 75 28 163 111 200 187 35
73 43 197 19 290 -18 69 -73 185 -116 244 l-28 38 19 60 c32 102 43 234 29
351 -32 279 -163 473 -355 523 -72 18 -113 18 -185 -1z m243 -47 c112 -55 207
-189 253 -357 26 -93 26 -328 0 -428 -10 -40 -21 -72 -25 -70 -3 2 -29 28 -58
58 l-52 56 10 44 c6 24 15 50 21 57 6 8 7 13 1 13 -6 0 -12 43 -15 98 -4 80
-11 111 -37 174 -58 138 -141 208 -246 208 -66 0 -114 -22 -167 -77 -33 -34
-98 -148 -98 -173 0 -5 -5 -21 -12 -37 -7 -17 -10 -69 -8 -133 2 -58 4 -122 4
-142 0 -21 3 -38 7 -38 12 0 48 -100 42 -117 -4 -11 -2 -14 8 -11 8 3 26 -11
42 -34 32 -42 94 -82 145 -93 51 -11 108 4 164 42 l52 36 39 -44 c63 -71 64
-75 22 -115 -21 -19 -60 -47 -89 -62 -46 -24 -62 -27 -151 -27 -91 0 -105 3
-154 28 -158 84 -256 279 -268 532 -11 261 79 487 238 592 90 60 233 68 332
20z m-92 -178 c52 -18 93 -53 131 -111 41 -65 54 -101 69 -198 12 -74 6 -192
-10 -219 -6 -10 -30 0 -98 41 -123 75 -214 103 -326 103 l-88 0 7 55 c28 232
168 378 315 329z m-113 -423 c276 -74 541 -357 582 -623 42 -269 -170 -467
-442 -413 -231 45 -497 282 -583 520 -26 71 -36 175 -24 245 10 61 64 173 77
160 4 -3 12 -32 19 -63 22 -97 38 -149 52 -166 9 -11 12 -32 9 -66 -3 -28 -1
-50 3 -50 5 0 9 -6 9 -12 0 -7 14 -42 30 -77 74 -156 225 -287 377 -326 61
-16 160 -17 178 -2 6 4 24 17 42 27 18 11 45 38 60 61 26 39 28 50 28 133 -1
75 -5 102 -27 154 -15 34 -22 62 -17 62 6 0 7 5 4 10 -4 6 -10 8 -14 6 -4 -3
-31 23 -59 59 -53 65 -151 143 -216 170 -20 8 -36 22 -36 30 0 17 -16 20 -24
6 -4 -6 -21 -5 -44 1 -20 6 -65 8 -99 5 -54 -5 -63 -4 -68 12 -11 36 -24 134
-19 142 8 14 144 10 202 -5z m59 -206 c70 -31 143 -80 143 -96 0 -8 -21 -28
-47 -44 -88 -56 -194 -31 -265 62 -43 57 -55 87 -37 99 23 16 152 3 206 -21z
m-164 -360 c134 -65 298 -42 407 56 22 20 44 33 49 30 20 -13 45 -113 45 -177
0 -76 -19 -116 -77 -163 -37 -29 -44 -31 -126 -31 -80 0 -93 3 -162 37 -127
63 -240 183 -288 306 -37 92 -28 100 35 33 36 -40 77 -71 117 -91z"/>
</g>
</svg>
