<?xml version="1.0" standalone="no"?>
<!DOCTYPE svg PUBLIC "-//W3C//DTD SVG 20010904//EN"
 "http://www.w3.org/TR/2001/REC-SVG-20010904/DTD/svg10.dtd">
<svg version="1.0" xmlns="http://www.w3.org/2000/svg"
 width="271.000000pt" height="257.000000pt" viewBox="0 0 271.000000 257.000000"
 preserveAspectRatio="xMidYMid meet">

<g transform="translate(0.000000,257.000000) scale(0.100000,-0.100000)"
fill="#000000" stroke="none">
<path d="M979 2524 c-20 -24 3 -113 48 -187 50 -83 56 -152 19 -217 -72 -125
-93 -204 -61 -230 26 -21 47 -1 60 56 6 27 29 79 51 114 37 61 39 67 39 150 0
83 -1 88 -42 155 -23 39 -45 88 -49 110 -11 63 -37 83 -65 49z"/>
<path d="M1293 2525 c-14 -38 5 -116 43 -177 36 -59 39 -68 39 -138 0 -70 -3
-79 -39 -138 -56 -90 -63 -191 -14 -192 17 0 38 35 38 64 0 20 15 58 40 99 22
37 45 89 50 117 13 71 -2 138 -50 217 -22 37 -40 80 -40 96 0 15 -5 37 -10 48
-13 23 -48 25 -57 4z"/>
<path d="M1612 2528 c-25 -25 -13 -84 38 -183 34 -66 50 -110 50 -135 0 -25
-16 -69 -50 -135 -53 -104 -64 -161 -34 -186 24 -20 48 1 56 50 4 23 26 76 49
117 67 123 66 201 -8 324 -18 32 -37 75 -40 96 -9 60 -33 80 -61 52z"/>
<path d="M1160 1779 c-36 -4 -76 -11 -90 -17 -14 -5 -52 -7 -85 -5 -33 3 -87
0 -120 -7 -33 -6 -89 -15 -125 -20 -75 -9 -166 -41 -205 -72 -33 -26 -64 -91
-65 -135 0 -50 -32 -65 -114 -57 -49 5 -70 3 -82 -7 -9 -7 -29 -12 -45 -11
-42 5 -75 -33 -84 -96 -8 -58 5 -92 36 -92 25 0 31 17 38 100 2 27 29 -12 49
-70 15 -43 24 -56 42 -58 13 -2 29 3 35 11 6 8 19 16 30 18 33 7 29 42 -10 82
-31 32 -44 57 -30 57 3 0 29 -12 57 -26 57 -29 78 -25 88 16 4 15 19 28 50 40
52 20 64 49 30 73 -20 14 -21 19 -10 52 14 42 50 68 125 90 46 14 56 14 105
-1 75 -22 134 -58 202 -122 69 -65 118 -139 118 -176 0 -55 -69 -93 -120 -66
-10 5 -43 45 -73 87 -66 95 -118 143 -198 183 -49 25 -63 29 -75 19 -26 -22
-12 -53 37 -79 78 -43 116 -78 177 -163 32 -45 73 -92 92 -104 43 -30 112 -31
159 -2 31 19 35 19 66 5 53 -25 105 -20 158 15 l47 31 26 -21 c19 -15 41 -21
78 -21 89 0 149 57 150 145 0 47 -45 143 -106 224 l-41 54 74 -7 c73 -8 89
-16 89 -47 0 -33 64 -75 146 -97 154 -41 237 -38 275 11 16 19 18 19 64 4 63
-22 137 -66 130 -77 -16 -26 -98 -35 -328 -35 -208 0 -240 -2 -247 -16 -6 -10
-5 -22 4 -34 12 -17 32 -19 247 -19 256 -1 318 8 370 51 65 55 21 125 -115
182 -41 17 -79 31 -85 31 -6 0 -22 18 -35 39 -70 110 -235 154 -354 95 l-52
-26 -139 11 c-113 9 -149 16 -188 35 -60 30 -91 35 -173 25z m188 -117 c104
-72 221 -246 206 -308 -14 -56 -97 -74 -133 -28 -11 14 -25 42 -32 62 -18 59
-114 195 -175 251 -30 28 -60 51 -65 51 -5 0 -9 5 -9 11 0 8 24 10 73 7 66 -3
78 -7 135 -46z m-292 -2 c105 -53 206 -160 250 -267 19 -44 6 -84 -32 -102
-61 -28 -104 -2 -104 64 0 32 -9 56 -39 101 -43 66 -149 172 -199 198 -45 23
-40 36 16 36 34 0 67 -9 108 -30z m845 19 c93 -28 147 -119 80 -134 -35 -8
-214 28 -247 50 -82 53 48 119 167 84z"/>
<path d="M2364 1385 c-33 -14 -89 -73 -99 -105 -8 -24 10 -50 34 -50 10 0 32
21 51 48 38 54 51 43 26 -22 -20 -51 -13 -76 21 -76 48 0 83 137 48 187 -19
27 -46 33 -81 18z"/>
<path d="M553 1334 c-22 -22 -25 -31 -20 -77 4 -47 2 -54 -24 -78 -32 -30 -36
-50 -14 -69 15 -12 55 -5 55 11 0 14 57 11 97 -6 59 -25 68 -21 89 42 23 68
41 79 46 27 6 -74 68 -68 68 7 0 52 -14 85 -45 105 -25 16 -28 16 -62 0 -36
-17 -36 -17 -67 12 -33 31 -67 52 -86 52 -6 0 -22 -12 -37 -26z m91 -95 c29
-34 33 -49 13 -49 -22 0 -44 23 -51 53 -8 36 6 34 38 -4z"/>
<path d="M1914 1281 c-18 -11 -40 -33 -50 -50 -21 -36 -20 -36 -69 -15 -112
46 -176 -34 -99 -126 33 -38 67 -38 72 1 2 14 -4 31 -12 39 -9 7 -16 16 -16
21 0 12 49 -8 92 -37 49 -34 73 -29 74 17 1 19 10 48 20 64 18 28 19 29 22 7
2 -12 -2 -38 -8 -58 -10 -30 -10 -39 3 -51 24 -24 52 -7 68 39 l13 41 92 -7
c77 -5 93 -4 98 9 16 42 -31 65 -130 65 -36 0 -64 4 -64 10 0 16 -39 50 -57
50 -10 0 -32 -9 -49 -19z"/>
<path d="M132 1218 c-27 -27 -3 -205 45 -328 92 -235 296 -443 561 -572 l102
-50 0 -74 c0 -60 3 -75 18 -82 93 -49 869 -49 965 0 14 7 17 22 17 82 l0 73
123 61 c67 34 152 85 190 113 238 180 382 423 404 683 5 69 4 81 -12 92 -23
17 -51 3 -59 -31 -17 -66 -284 -132 -681 -166 -181 -16 -749 -16 -930 0 -185
16 -393 46 -491 71 -102 26 -188 69 -192 95 -3 19 -28 45 -42 45 -3 0 -11 -5
-18 -12z m220 -193 c225 -60 549 -90 988 -90 511 1 912 47 1097 126 l45 19 -7
-33 c-10 -52 -46 -159 -68 -202 -70 -141 -231 -313 -374 -398 -139 -83 -224
-114 -352 -129 -119 -14 -142 -25 -127 -63 6 -16 16 -17 99 -10 50 4 97 8 102
8 6 1 11 -17 13 -39 l3 -42 -43 -6 c-238 -34 -537 -34 -775 0 -43 6 -43 7 -43
48 l0 42 112 -12 c61 -7 118 -10 125 -7 19 7 16 51 -4 61 -10 5 -56 13 -103
16 -123 11 -175 23 -266 66 -247 115 -463 338 -539 556 -13 38 -27 86 -31 107
l-7 39 31 -16 c18 -9 73 -27 124 -41z"/>
<path d="M1106 1148 c-37 -21 -7 -68 43 -68 14 0 21 -6 21 -20 0 -30 26 -35
79 -17 25 8 59 18 74 22 24 5 28 10 25 33 -3 26 -6 27 -58 28 -31 0 -61 3 -67
7 -23 14 -101 24 -117 15z"/>
</g>
</svg>
