<?xml version="1.0" standalone="no"?>
<!DOCTYPE svg PUBLIC "-//W3C//DTD SVG 20010904//EN"
 "http://www.w3.org/TR/2001/REC-SVG-20010904/DTD/svg10.dtd">
<svg version="1.0" xmlns="http://www.w3.org/2000/svg"
 width="207.000000pt" height="224.000000pt" viewBox="0 0 207.000000 224.000000"
 preserveAspectRatio="xMidYMid meet">
<metadata>
Created by potrace 1.16, written by Peter Selinger 2001-2019
</metadata>
<g transform="translate(0.000000,224.000000) scale(0.100000,-0.100000)"
fill="#000000" stroke="none">
<path d="M950 2225 c-7 -8 -10 -25 -7 -37 9 -32 -16 -54 -90 -79 -105 -35
-132 -71 -110 -150 6 -23 3 -28 -22 -39 -110 -45 -167 -151 -129 -236 11 -24
10 -28 -6 -38 -44 -25 -96 -80 -106 -112 -6 -19 -18 -34 -26 -34 -8 0 -17 -6
-20 -13 -2 -7 11 -208 30 -446 40 -486 40 -486 124 -546 43 -30 46 -30 189
-33 l145 -4 -7 -36 c-9 -50 -8 -48 -62 -56 -52 -7 -120 -41 -137 -68 -40 -64
133 -126 319 -115 135 8 235 49 235 97 0 34 -72 77 -146 87 -36 5 -48 11 -55
30 -23 61 -22 61 134 65 137 3 145 4 185 30 22 15 52 47 66 71 25 42 27 62 61
477 20 239 33 440 31 447 -3 7 -12 13 -20 13 -21 0 -37 55 -25 87 5 15 9 50 7
77 -2 51 -2 52 150 265 84 118 152 221 152 230 0 44 -43 71 -85 55 -9 -4 -86
-105 -171 -225 -86 -121 -160 -219 -165 -219 -5 0 -17 17 -28 39 -23 45 -68
85 -128 114 -42 21 -43 22 -43 72 0 60 -32 118 -98 177 -70 63 -118 81 -142
53z m117 -87 c74 -71 87 -97 79 -168 l-7 -57 38 -11 c61 -18 128 -66 146 -105
22 -45 21 -65 -3 -105 -11 -18 -18 -37 -15 -42 3 -5 33 -24 65 -41 51 -27 100
-77 100 -103 0 -3 -216 -6 -480 -6 -264 0 -480 3 -480 6 0 23 47 74 94 103 31
18 56 35 56 37 0 2 -9 18 -20 36 -45 74 -10 152 88 199 71 34 71 34 55 80 -19
57 -3 79 79 109 82 30 115 54 123 90 4 17 11 30 16 30 6 0 35 -24 66 -52z
m697 21 c-1 -8 -71 -113 -157 -233 -125 -176 -154 -223 -146 -237 10 -19 12
-72 3 -81 -7 -7 -104 52 -104 63 0 26 22 59 39 59 14 0 55 49 142 173 184 258
199 279 212 274 7 -2 12 -10 11 -18z m-258 -736 c-3 -21 -8 -75 -12 -120 l-6
-82 -31 20 c-41 24 -83 24 -125 -1 -41 -25 -69 -25 -107 0 -38 25 -81 25 -123
0 -41 -25 -62 -25 -109 0 -21 11 -48 20 -61 20 -12 0 -40 -9 -62 -20 -22 -11
-46 -20 -55 -20 -8 0 -32 9 -52 20 -21 11 -48 20 -61 20 -12 0 -40 -9 -62 -20
-49 -25 -61 -25 -110 0 -43 22 -44 27 -54 153 l-5 67 520 0 521 0 -6 -37z
m-923 -243 c15 0 45 9 67 20 49 25 67 25 105 0 38 -25 75 -25 125 0 22 11 46
20 55 20 8 0 32 -9 52 -20 21 -11 48 -20 61 -20 12 0 40 9 62 20 22 11 46 20
55 20 8 0 32 -9 52 -20 21 -11 48 -20 61 -20 12 0 40 9 62 20 49 25 60 25 107
0 37 -19 38 -21 35 -69 l-4 -50 -31 20 c-18 10 -43 19 -57 19 -39 0 -89 -37
-108 -78 -16 -35 -20 -38 -44 -31 -15 4 -43 23 -61 42 -36 39 -73 53 -113 43
-27 -7 -77 -51 -85 -75 -4 -10 -14 -7 -43 13 -59 40 -110 31 -165 -28 -14 -14
-28 -26 -33 -26 -4 0 -22 16 -40 36 -45 49 -98 56 -150 20 l-37 -25 -5 32 c-3
18 -8 65 -11 105 l-6 72 33 -20 c18 -11 46 -20 61 -20z m862 -125 c70 -69 -28
-179 -104 -117 -12 9 -24 34 -27 54 -12 74 77 117 131 63z m-520 -60 c16 -15
25 -36 25 -55 0 -71 -86 -105 -137 -54 -21 21 -24 32 -20 62 7 40 37 80 37 49
0 -29 37 -57 76 -57 28 0 35 3 32 18 -2 9 -14 18 -28 20 -14 2 -29 9 -35 16
-5 7 -17 15 -25 19 -8 3 0 6 18 6 22 1 41 -7 57 -24z m357 -49 c4 -6 5 -19 2
-29 -4 -14 -1 -18 13 -16 24 3 70 -17 76 -33 4 -10 7 -11 18 0 36 34 52 -4 24
-58 -17 -32 -35 -40 -35 -15 0 18 -16 20 -27 2 -11 -18 -77 -57 -96 -57 -9 0
-31 9 -49 20 -18 11 -45 20 -59 20 -19 0 -28 6 -33 23 -11 40 -6 57 17 66 30
12 64 51 72 83 6 25 9 26 38 16 18 -6 35 -16 39 -22z m-494 -89 c16 -17 41
-30 64 -33 31 -5 38 -11 38 -30 0 -26 -34 -54 -65 -54 -12 0 -31 11 -44 24
-18 20 -28 22 -59 16 -20 -4 -52 -16 -69 -26 -40 -23 -63 -12 -77 34 -13 47
12 77 97 116 l72 33 9 -26 c5 -14 20 -38 34 -54z m-16 -137 c18 -11 44 -20 58
-20 14 0 40 9 58 20 41 25 59 25 97 0 39 -26 64 -25 120 2 l45 22 43 -22 c55
-27 83 -28 122 -2 38 25 55 25 99 -1 34 -20 36 -23 30 -62 -10 -65 -42 -114
-89 -137 -39 -19 -62 -20 -365 -20 -304 0 -326 1 -364 20 -23 11 -49 32 -60
46 -19 26 -45 149 -34 160 4 3 17 -1 30 -10 31 -22 77 -20 113 4 38 25 56 25
97 0z m253 -315 c4 -31 17 -75 29 -98 30 -60 66 -55 40 7 -7 18 -4 19 35 12
54 -8 104 -33 98 -49 -24 -74 -450 -74 -474 0 -6 16 44 41 98 49 39 7 42 6 35
-12 -26 -62 10 -67 40 -7 12 23 25 67 29 98 6 52 8 55 35 55 27 0 29 -3 35
-55z"/>
</g>
</svg>
