<?xml version="1.0" standalone="no"?>
<!DOCTYPE svg PUBLIC "-//W3C//DTD SVG 20010904//EN"
 "http://www.w3.org/TR/2001/REC-SVG-20010904/DTD/svg10.dtd">
<svg version="1.0" xmlns="http://www.w3.org/2000/svg"
 width="266.000000pt" height="252.000000pt" viewBox="0 0 266.000000 252.000000"
 preserveAspectRatio="xMidYMid meet">
<metadata>
Created by potrace 1.16, written by Peter Selinger 2001-2019
</metadata>
<g transform="translate(0.000000,252.000000) scale(0.100000,-0.100000)"
fill="#000000" stroke="none">
<path d="M476 2504 c-184 -45 -337 -201 -382 -390 -33 -142 -3 -298 100 -519
l46 -98 -49 -52 c-117 -124 -140 -271 -72 -473 59 -176 147 -319 275 -447 122
-122 270 -215 431 -270 62 -21 92 -39 135 -79 92 -85 221 -136 341 -136 121 0
386 90 546 184 321 191 557 484 674 837 76 229 35 433 -116 584 -187 187 -481
205 -688 43 l-38 -30 -45 42 c-64 59 -137 89 -238 100 -96 10 -145 31 -197 87
-53 55 -69 94 -79 191 -13 120 -48 189 -145 280 -146 139 -319 190 -499 146z
m216 -75 c85 -18 167 -65 238 -138 81 -81 99 -118 110 -227 11 -105 42 -177
105 -239 62 -63 134 -94 240 -105 92 -10 161 -39 210 -90 l27 -28 -26 -34
c-42 -56 -67 -124 -76 -213 -10 -94 -26 -133 -79 -188 -53 -56 -101 -77 -199
-87 -63 -7 -103 -17 -148 -40 -34 -16 -71 -30 -83 -30 -22 0 -95 60 -113 93
-6 11 -14 54 -19 95 -10 93 -34 135 -132 230 -89 85 -159 121 -256 129 -57 4
-85 1 -161 -18 -36 -10 -158 293 -167 416 -23 299 241 535 529 474z m1500
-739 c115 -43 214 -141 259 -258 35 -88 33 -229 -4 -342 -144 -437 -486 -779
-919 -921 -189 -61 -297 -62 -415 -3 l-55 28 69 12 c126 21 220 90 275 202 31
62 33 74 33 167 0 88 -3 107 -27 158 -29 62 -146 192 -206 229 -18 11 -31 23
-28 25 3 3 41 9 86 14 199 20 319 140 340 342 11 110 29 147 110 228 69 70
142 114 225 136 68 17 187 10 257 -17z m-1608 -238 c59 -27 169 -131 196 -187
11 -23 20 -61 21 -86 1 -55 15 -96 55 -152 40 -56 136 -107 202 -107 64 0 120
-30 189 -103 79 -82 105 -134 111 -222 8 -133 -64 -250 -183 -294 -72 -27
-118 -26 -240 4 -299 76 -550 281 -685 560 -107 219 -117 374 -31 492 81 112
236 152 365 95z"/>
<path d="M505 2346 c-150 -48 -250 -171 -263 -322 l-5 -64 40 0 40 0 6 60 c11
121 104 228 220 252 l57 12 0 38 c0 35 -2 38 -27 37 -16 0 -46 -6 -68 -13z"/>
<path d="M953 1878 c-30 -14 -29 -24 7 -78 41 -62 114 -135 166 -165 53 -31
58 -31 72 0 17 37 15 43 -16 59 -46 24 -131 105 -158 152 -27 46 -35 50 -71
32z"/>
<path d="M1611 1121 c-34 -53 -108 -123 -153 -147 -31 -16 -33 -22 -16 -59 14
-31 19 -31 71 0 68 40 197 184 197 221 0 10 -41 34 -59 34 -4 0 -22 -22 -40
-49z"/>
<path d="M1876 534 c-123 -97 -259 -169 -406 -215 -41 -13 -77 -24 -78 -25 -7
-5 19 -74 27 -74 27 0 181 58 268 101 93 46 304 190 303 207 -1 4 -11 19 -23
34 l-22 27 -69 -55z"/>
<path d="M389 1386 c-90 -32 -149 -115 -149 -210 0 -49 26 -163 41 -180 4 -4
23 -3 42 3 l35 12 -19 60 c-37 117 -17 191 64 234 32 18 37 24 37 58 0 41 0
41 -51 23z"/>
<path d="M692 1079 c-28 -8 -32 -13 -26 -32 27 -90 122 -197 218 -244 61 -29
70 -27 80 22 6 28 3 31 -38 48 -64 27 -128 86 -165 156 -18 34 -33 61 -34 60
-1 0 -17 -5 -35 -10z"/>
</g>
</svg>
