<?xml version="1.0" standalone="no"?>
<!DOCTYPE svg PUBLIC "-//W3C//DTD SVG 20010904//EN"
 "http://www.w3.org/TR/2001/REC-SVG-20010904/DTD/svg10.dtd">
<svg version="1.0" xmlns="http://www.w3.org/2000/svg"
 width="133.000000pt" height="114.000000pt" viewBox="0 0 133.000000 114.000000"
 preserveAspectRatio="xMidYMid meet">

<g transform="translate(0.000000,114.000000) scale(0.100000,-0.100000)"
fill="#000000" stroke="none">
<path d="M804 1079 c-5 -8 -3 -9 6 -4 7 4 16 2 22 -6 8 -12 9 -12 6 0 -6 20
-24 25 -34 10z"/>
<path d="M724 1019 c-16 -16 -22 -28 -14 -24 13 5 56 55 47 55 -2 0 -16 -14
-33 -31z"/>
<path d="M825 1040 c3 -6 13 -10 21 -10 8 0 14 -10 14 -25 0 -14 4 -25 9 -25
18 0 -6 53 -27 61 -15 6 -21 5 -17 -1z"/>
<path d="M308 1023 c6 -2 18 -2 25 0 6 3 1 5 -13 5 -14 0 -19 -2 -12 -5z"/>
<path d="M380 1006 c0 -2 7 -7 16 -10 8 -3 12 -2 9 4 -6 10 -25 14 -25 6z"/>
<path d="M273 966 c-15 -15 -19 -26 -13 -36 5 -8 6 -19 3 -25 -3 -5 0 -5 7 2
10 9 10 15 1 26 -9 12 -7 16 9 20 11 3 20 12 20 21 0 19 0 19 -27 -8z"/>
<path d="M642 940 c-25 -29 -48 -48 -55 -44 -7 4 -5 -1 5 -11 18 -20 40 -12
31 11 -3 9 0 14 8 12 8 -2 13 3 12 10 -2 6 3 12 11 12 8 0 19 14 25 30 5 17 9
30 8 30 -1 0 -21 -23 -45 -50z"/>
<path d="M471 967 c2 -1 13 -9 24 -17 19 -14 19 -14 6 3 -7 9 -18 17 -24 17
-6 0 -8 -1 -6 -3z"/>
<path d="M886 942 c-2 -4 4 -13 15 -20 22 -14 25 -7 5 14 -8 8 -17 11 -20 6z"/>
<path d="M547 889 c7 -7 15 -10 18 -7 3 3 -2 9 -12 12 -14 6 -15 5 -6 -5z"/>
<path d="M907 886 c-3 -8 1 -20 9 -27 15 -12 15 -30 0 -74 -5 -13 -2 -12 8 5
19 32 20 54 2 70 -8 6 -12 18 -9 26 3 8 3 14 0 14 -3 0 -7 -6 -10 -14z"/>
<path d="M255 869 c4 -5 -1 -19 -10 -29 -15 -16 -16 -22 -5 -35 11 -13 10 -19
-6 -36 -18 -20 -18 -21 4 -38 l23 -17 -21 -27 -22 -27 31 -11 c22 -8 30 -16
28 -32 -1 -16 5 -23 28 -27 20 -4 26 -8 18 -13 -7 -5 -13 -14 -13 -22 0 -22
36 -27 70 -10 31 16 41 29 15 19 -8 -4 -15 -2 -15 4 0 10 23 22 41 22 6 0 7
-6 3 -12 -4 -7 5 -2 19 11 15 13 24 28 20 34 -3 6 -1 7 4 4 6 -4 16 0 23 8 10
12 10 15 -3 15 -27 0 -47 -12 -40 -23 4 -6 0 -8 -10 -4 -10 3 -17 2 -17 -3 0
-6 -8 -10 -17 -10 -12 0 -2 15 32 46 28 25 41 41 29 35 -11 -5 -27 -17 -34
-26 -7 -9 -27 -23 -42 -31 -24 -12 -27 -18 -17 -30 8 -10 8 -14 0 -14 -6 0
-11 -6 -11 -14 0 -20 -26 -40 -35 -26 -3 5 0 13 9 16 24 9 6 34 -25 34 -16 0
-29 4 -29 9 0 15 29 33 41 25 8 -4 9 -3 5 5 -4 6 -13 11 -19 9 -7 -1 -27 2
-44 6 l-33 7 23 30 c22 31 19 38 -18 52 -5 3 1 16 13 30 22 24 23 26 5 35 -17
10 -17 12 5 35 21 22 21 37 0 37 -5 0 -6 -5 -3 -11z"/>
<path d="M650 820 c-19 -4 -30 -8 -23 -9 29 -3 -1 -31 -33 -31 -26 0 -32 4
-28 15 9 21 -45 16 -68 -7 -17 -17 -13 -18 97 -18 78 0 115 4 115 11 0 7 -9 9
-22 6 -19 -5 -21 -4 -8 6 16 13 25 38 13 36 -5 -1 -24 -5 -43 -9z"/>
<path d="M453 813 c9 -2 23 -2 30 0 6 3 -1 5 -18 5 -16 0 -22 -2 -12 -5z"/>
<path d="M735 790 c16 -16 25 -30 19 -30 -5 0 -1 -5 9 -11 10 -6 20 -9 23 -6
5 5 -62 77 -72 77 -4 0 5 -13 21 -30z"/>
<path d="M720 770 c0 -5 5 -10 11 -10 5 0 7 5 4 10 -3 6 -8 10 -11 10 -2 0 -4
-4 -4 -10z"/>
<path d="M911 746 c-9 -11 -9 -19 0 -35 11 -16 11 -24 0 -44 -7 -14 -11 -31
-8 -39 3 -8 6 -5 6 8 1 11 4 24 9 28 5 6 11 96 6 96 -1 0 -7 -6 -13 -14z"/>
<path d="M610 743 c15 -2 36 -20 53 -43 27 -39 114 -107 123 -97 3 2 -8 12
-23 22 -28 18 -58 47 -100 98 -16 19 -32 27 -50 26 -27 -2 -27 -2 -3 -6z"/>
<path d="M545 730 c-11 -5 -16 -9 -11 -9 6 -1 1 -7 -10 -15 -10 -8 -17 -17
-14 -19 3 -3 20 8 38 24 33 30 32 34 -3 19z"/>
<path d="M490 670 c0 -5 5 -10 11 -10 5 0 7 5 4 10 -3 6 -8 10 -11 10 -2 0 -4
-4 -4 -10z"/>
<path d="M558 629 c-10 -5 -18 -21 -18 -33 0 -13 -7 -26 -15 -30 -8 -3 -15
-10 -15 -16 0 -5 9 -2 20 7 11 10 20 27 20 40 0 30 31 37 74 16 26 -12 33 -19
24 -26 -9 -6 -8 -7 3 -4 18 6 64 -35 53 -46 -4 -4 1 -9 10 -13 9 -3 23 -23 32
-43 26 -60 30 -66 50 -68 10 -2 13 0 6 3 -7 3 -26 32 -41 63 -33 65 -79 114
-133 142 -42 22 -47 22 -70 8z"/>
<path d="M895 600 c-5 -8 -24 -10 -54 -6 -32 4 -40 3 -26 -3 11 -5 31 -10 45
-10 28 -1 58 14 48 24 -3 4 -9 1 -13 -5z"/>
<path d="M1067 547 c-22 -7 -36 -15 -31 -19 4 -4 -1 -10 -10 -14 -9 -3 -13
-10 -10 -15 3 -5 10 -6 16 -3 22 14 66 13 78 -1 7 -8 17 -15 22 -15 5 0 3 7
-6 15 -13 14 -13 45 1 45 3 0 3 -7 -1 -15 -3 -8 -1 -15 4 -15 16 0 11 37 -6
44 -9 3 -16 6 -17 5 -1 0 -19 -6 -40 -12z"/>
<path d="M996 521 c-8 -12 4 -41 16 -41 7 0 6 5 -1 13 -8 10 -7 17 1 25 9 9 9
12 1 12 -7 0 -14 -4 -17 -9z"/>
<path d="M514 513 c3 -6 2 -14 -4 -18 -5 -3 -10 -13 -10 -21 0 -8 -9 -28 -21
-43 -17 -23 -19 -32 -10 -50 9 -15 9 -27 1 -42 -8 -14 -8 -24 -1 -33 6 -6 8
-22 4 -34 -3 -15 0 -24 11 -28 11 -4 14 -13 10 -30 -4 -16 -1 -26 8 -29 10 -4
13 -15 10 -31 -3 -18 0 -24 14 -24 11 0 26 5 34 10 11 8 7 9 -14 4 -27 -7 -29
-5 -22 20 5 19 3 26 -9 26 -18 0 -19 14 -5 41 6 11 7 19 3 18 -28 -5 -35 2
-29 28 5 16 3 29 -4 33 -9 6 -9 13 -1 29 9 15 9 27 1 41 -11 21 2 60 20 60 6
0 10 11 10 24 0 13 6 26 13 29 9 3 9 8 -2 18 -8 8 -11 9 -7 2z"/>
<path d="M961 496 c-14 -17 -1 -28 19 -16 11 7 12 12 4 20 -8 8 -14 7 -23 -4z"/>
<path d="M1042 487 c-6 -7 -32 -23 -57 -36 -46 -23 -60 -35 -27 -25 15 5 99
44 111 52 3 1 0 7 -6 13 -7 7 -13 6 -21 -4z"/>
<path d="M919 463 c-8 -9 -27 -24 -44 -35 -24 -14 -26 -18 -10 -18 24 1 91 55
77 64 -5 3 -16 -2 -23 -11z"/>
<path d="M1153 473 c4 -3 1 -13 -5 -21 -10 -11 -9 -17 6 -28 10 -7 24 -15 30
-17 6 -2 -2 -15 -17 -28 l-29 -24 23 -20 22 -20 -14 23 c-13 21 -12 25 11 42
l25 20 -29 23 c-20 16 -25 26 -18 31 15 9 15 26 0 26 -6 0 -8 -3 -5 -7z"/>
<path d="M630 456 c0 -3 15 -16 33 -27 l32 -21 -30 7 -30 6 38 -36 c44 -40 77
-45 108 -14 l22 22 -26 -5 c-15 -3 -24 -1 -21 3 3 5 -1 9 -8 9 -14 0 -49 17
-90 44 -16 10 -28 15 -28 12z m80 -63 c0 5 5 5 11 1 7 -4 8 -9 0 -17 -12 -12
-44 10 -35 25 4 6 10 5 15 -3 5 -8 9 -10 9 -6z"/>
<path d="M1110 451 c0 -6 4 -13 10 -16 6 -3 7 1 4 9 -7 18 -14 21 -14 7z"/>
<path d="M834 371 c14 -5 16 -10 8 -15 -16 -10 -4 -29 14 -22 8 3 14 1 14 -4
0 -6 7 -10 16 -10 8 0 13 4 9 9 -3 5 5 13 17 17 22 7 22 7 3 14 -29 10 -104
21 -81 11z"/>
<path d="M798 343 c7 -3 16 -2 19 1 4 3 -2 6 -13 5 -11 0 -14 -3 -6 -6z"/>
<path d="M1135 290 c-3 -5 1 -20 9 -32 13 -18 16 -19 16 -5 0 9 -5 17 -11 17
-6 0 -9 7 -5 15 6 17 0 20 -9 5z"/>
<path d="M759 283 c-1 -5 -1 -12 0 -16 1 -5 -4 -7 -11 -4 -7 2 -25 -8 -40 -24
-14 -15 -30 -24 -34 -21 -4 4 -4 2 0 -5 5 -9 22 -2 61 22 l54 35 20 -28 c14
-17 19 -20 14 -8 -4 13 -3 17 5 12 8 -5 10 -2 6 9 -4 9 -12 14 -19 11 -8 -3
-16 2 -19 10 -6 14 -35 20 -37 7z"/>
<path d="M1111 227 c-8 -11 -6 -18 12 -33 l22 -19 -18 22 c-18 20 -18 22 0 32
10 6 13 11 7 11 -6 0 -17 -6 -23 -13z"/>
<path d="M634 185 c-18 -13 -18 -14 4 -8 12 3 25 9 28 14 8 14 -10 11 -32 -6z"/>
<path d="M870 175 c13 -14 26 -25 28 -25 3 0 -5 11 -18 25 -13 14 -26 25 -28
25 -3 0 5 -11 18 -25z"/>
<path d="M1085 171 c-3 -5 0 -13 6 -17 7 -4 9 -3 5 4 -3 6 2 13 11 15 16 4 16
5 1 6 -9 0 -19 -3 -23 -8z"/>
<path d="M925 130 c10 -11 20 -20 23 -20 3 0 -3 9 -13 20 -10 11 -20 20 -23
20 -3 0 3 -9 13 -20z"/>
<path d="M1073 130 c-13 -5 -22 -17 -22 -27 1 -17 2 -17 6 0 2 9 11 17 18 17
8 0 17 5 20 10 7 12 7 12 -22 0z"/>
</g>
</svg>
