<?xml version="1.0" standalone="no"?>
<!DOCTYPE svg PUBLIC "-//W3C//DTD SVG 20010904//EN"
 "http://www.w3.org/TR/2001/REC-SVG-20010904/DTD/svg10.dtd">
<svg version="1.0" xmlns="http://www.w3.org/2000/svg"
 width="279.000000pt" height="189.000000pt" viewBox="0 0 279.000000 189.000000"
 preserveAspectRatio="xMidYMid meet">

<g transform="translate(0.000000,189.000000) scale(0.100000,-0.100000)"
fill="#000000" stroke="none">
<path d="M1573 1740 c-42 -19 -63 -44 -63 -77 0 -19 82 -250 102 -286 5 -10
23 -24 40 -32 58 -24 158 31 158 85 0 29 -99 284 -118 302 -26 27 -72 30 -119
8z m107 -186 c35 -95 40 -118 29 -125 -8 -5 -17 -9 -20 -9 -10 0 -91 229 -84
239 17 28 35 3 75 -105z"/>
<path d="M1200 1679 c-73 -21 -100 -46 -100 -92 0 -35 29 -147 41 -162 18 -19
8 -24 -19 -8 -46 26 -73 11 -176 -100 -88 -95 -100 -104 -148 -116 -29 -6 -54
-8 -56 -4 -14 41 -36 63 -97 95 -116 62 -153 50 -210 -62 -41 -81 -42 -92 -14
-144 18 -35 19 -40 5 -61 -8 -13 -31 -28 -50 -35 -30 -10 -66 -56 -66 -85 0
-4 -18 -27 -40 -51 -22 -24 -40 -48 -40 -52 0 -5 -19 -12 -42 -15 -70 -9 -109
-74 -75 -121 7 -10 62 -48 122 -84 97 -60 111 -71 123 -107 29 -83 46 -117 70
-136 24 -18 51 -19 943 -19 559 0 928 4 943 10 32 12 53 44 80 122 l21 62 114
71 c63 38 119 80 124 92 26 59 -31 113 -121 113 -47 0 -57 4 -87 35 -27 26
-35 43 -35 70 0 41 -54 109 -96 119 -14 4 -39 22 -55 41 -16 18 -43 36 -58 40
-20 4 -33 16 -41 36 -7 16 -24 39 -39 50 -18 15 -32 44 -51 107 -23 81 -28 88
-62 105 -36 17 -38 17 -115 -4 -91 -26 -101 -33 -120 -76 -13 -32 -15 -33 -76
-33 l-62 1 -19 40 c-22 48 -79 89 -135 96 -73 10 -158 -48 -176 -119 -6 -24
-12 -27 -60 -30 l-52 -3 5 38 c4 29 0 45 -16 67 l-21 28 28 -11 c41 -15 184
26 211 61 25 31 25 50 0 137 -33 116 -69 133 -200 94z m110 -85 c6 -14 13 -42
16 -62 6 -37 6 -37 -40 -50 -70 -18 -73 -17 -91 44 -9 31 -15 57 -13 59 3 3
99 32 111 34 4 1 12 -11 17 -25z m-204 -269 c4 -9 -25 -48 -77 -105 -74 -81
-85 -89 -98 -75 -14 13 -11 19 24 57 139 150 141 151 151 123z m399 1 c51 -22
60 -92 18 -138 -22 -25 -94 -24 -116 0 -41 45 -29 122 22 141 36 13 37 13 76
-3z m483 -51 c19 -70 17 -73 -44 -91 -30 -9 -57 -14 -58 -12 -1 1 -8 23 -15
47 -7 23 -15 49 -18 56 -3 10 11 19 44 29 73 22 77 21 91 -29z m-1389 -51 c25
-15 48 -29 50 -31 3 -2 -8 -28 -24 -57 l-29 -54 -53 26 c-29 14 -53 30 -53 34
0 14 50 108 57 108 3 0 27 -12 52 -26z m1159 -30 c23 -5 32 -13 37 -34 7 -34
41 -65 79 -74 22 -5 26 -10 17 -19 -21 -21 -11 -47 29 -73 29 -19 47 -25 65
-20 39 10 31 53 -15 84 -19 13 -34 26 -33 29 1 4 29 15 63 25 68 21 90 14 90
-28 0 -28 23 -52 58 -60 40 -8 57 -19 61 -40 5 -31 21 -44 52 -44 39 0 69 -32
69 -73 0 -18 7 -43 16 -55 l15 -22 -615 0 -616 0 32 45 c36 51 32 78 -15 83
-20 3 -31 -5 -51 -35 -30 -44 -32 -56 -10 -77 14 -15 4 -16 -113 -16 l-128 0
0 57 c0 55 -1 58 -26 61 -34 4 -48 -15 -51 -71 l-3 -47 -225 0 -225 0 38 25
c31 21 37 32 37 60 0 30 5 37 33 49 31 13 80 61 89 88 4 10 10 10 32 0 59 -27
103 -12 140 47 21 33 32 39 83 50 l59 13 34 -32 c41 -38 75 -53 104 -44 11 3
48 33 82 65 l60 60 98 10 c94 10 99 9 113 -11 26 -37 67 -70 101 -81 63 -21
145 11 188 72 25 36 30 39 74 39 26 0 61 -3 78 -6z m757 -520 c-22 -13 -68
-41 -102 -61 -63 -37 -76 -56 -104 -148 -6 -22 -16 -46 -22 -52 -14 -19 -1800
-19 -1815 0 -5 6 -18 38 -27 69 -21 75 -40 97 -127 148 -40 24 -82 49 -93 57
-16 11 169 13 1155 13 l1175 -1 -40 -25z"/>
<path d="M1642 1158 c-16 -16 -15 -43 1 -55 18 -15 91 -22 110 -11 23 12 21
55 -2 68 -27 14 -94 13 -109 -2z"/>
<path d="M1271 1096 c-7 -8 -11 -25 -9 -38 6 -45 119 -51 133 -7 10 29 -11 46
-66 54 -34 5 -48 3 -58 -9z"/>
<path d="M1040 1081 c-15 -29 -4 -46 46 -72 34 -19 48 -22 61 -13 33 20 27 50
-14 78 -45 31 -78 33 -93 7z"/>
<path d="M1501 1046 c-27 -28 -32 -40 -27 -60 9 -35 51 -35 88 1 44 42 35 93
-16 93 -7 0 -27 -15 -45 -34z"/>
<path d="M706 1037 c-28 -37 -33 -66 -14 -85 22 -22 47 -13 73 25 38 57 31 93
-20 93 -8 0 -25 -15 -39 -33z"/>
<path d="M867 998 c-12 -9 -18 -23 -15 -39 2 -20 11 -26 51 -33 54 -11 80 -1
85 30 4 31 -11 43 -59 50 -30 4 -50 1 -62 -8z"/>
<path d="M1812 988 c-16 -16 -15 -66 1 -98 16 -31 70 -36 75 -7 14 70 -39 142
-76 105z"/>
<path d="M2045 927 c-30 -52 -29 -51 -9 -71 22 -23 40 -20 69 12 47 50 42 102
-11 102 -17 0 -30 -12 -49 -43z"/>
<path d="M520 935 c-6 -8 -9 -22 -6 -33 8 -25 81 -65 105 -57 43 13 32 63 -19
90 -37 19 -64 19 -80 0z"/>
<path d="M1598 939 c-29 -11 -42 -36 -33 -62 10 -23 37 -26 86 -8 38 15 44 20
44 46 0 27 -3 30 -35 32 -19 1 -47 -3 -62 -8z"/>
<path d="M1296 911 c-25 -28 -6 -57 46 -72 50 -13 72 -4 76 35 4 27 -9 36 -74
50 -23 5 -34 2 -48 -13z"/>
<path d="M492 553 c-10 -20 -5 -44 12 -55 6 -4 57 -8 112 -8 110 0 129 8 122
52 -3 22 -6 23 -120 26 -104 2 -118 1 -126 -15z"/>
<path d="M877 563 c-11 -11 -8 -48 5 -61 14 -14 1354 -17 1376 -3 8 5 12 21
10 37 l-3 29 -691 3 c-380 1 -694 -1 -697 -5z"/>
<path d="M714 1571 c-110 -50 -134 -180 -49 -266 67 -66 153 -69 226 -8 78 66
79 172 2 245 -53 51 -111 60 -179 29z m135 -98 c18 -21 22 -34 17 -61 -8 -52
-31 -72 -83 -72 -54 0 -83 26 -83 74 0 50 9 66 44 82 40 18 75 10 105 -23z"/>
</g>
</svg>
