<?xml version="1.0" standalone="no"?>
<!DOCTYPE svg PUBLIC "-//W3C//DTD SVG 20010904//EN"
 "http://www.w3.org/TR/2001/REC-SVG-20010904/DTD/svg10.dtd">
<svg version="1.0" xmlns="http://www.w3.org/2000/svg"
 width="262.000000pt" height="252.000000pt" viewBox="0 0 262.000000 252.000000"
 preserveAspectRatio="xMidYMid meet">

<g transform="translate(0.000000,252.000000) scale(0.100000,-0.100000)"
fill="#000000" stroke="none">
<path d="M895 2495 c-24 -23 -25 -31 -25 -135 0 -104 1 -112 25 -135 23 -24
31 -25 135 -25 104 0 112 1 135 25 24 23 25 31 25 135 0 104 -1 112 -25 135
-23 24 -31 25 -135 25 -104 0 -112 -1 -135 -25z m215 -135 l0 -80 -80 0 -80 0
0 80 0 80 80 0 80 0 0 -80z"/>
<path d="M1343 2287 c-106 -106 -193 -200 -193 -209 0 -23 45 -63 100 -91 35
-17 62 -22 125 -22 70 0 87 4 133 29 108 60 168 167 159 283 -7 92 -70 203
-115 203 -9 0 -103 -87 -209 -193z m242 -32 c0 -149 -141 -248 -285 -200 l-52
17 153 154 154 155 15 -33 c8 -18 15 -60 15 -93z"/>
<path d="M542 2340 c-36 -22 -72 -74 -72 -105 0 -16 -6 -13 -37 17 -49 46 -73
58 -120 58 -78 0 -140 -53 -150 -128 -8 -58 2 -87 47 -136 l40 -43 -27 -6
c-52 -12 -59 -22 -35 -53 19 -28 22 -28 99 -25 129 5 133 24 28 132 -82 84
-94 120 -55 159 39 39 75 27 159 -55 106 -103 131 -100 131 17 0 55 4 72 20
88 24 24 49 25 76 6 17 -13 20 -31 24 -152 4 -116 8 -139 23 -148 26 -16 51 4
58 49 10 58 53 81 95 51 17 -13 20 -31 24 -152 4 -116 8 -139 23 -148 26 -16
51 4 58 49 10 62 60 84 99 45 19 -19 20 -33 20 -212 l0 -193 -283 283 c-155
155 -288 282 -294 282 -7 0 -20 -12 -29 -26 l-17 -26 284 -284 284 -284 -193
0 c-179 0 -193 1 -212 20 -39 39 -17 89 45 99 45 7 65 32 49 59 -9 14 -32 18
-148 22 -121 4 -139 7 -152 24 -30 42 -7 85 51 95 45 7 65 32 49 59 -9 14 -32
18 -148 22 -121 4 -139 7 -152 24 -8 11 -14 23 -14 28 0 4 -18 8 -40 8 -47 0
-52 -16 -20 -68 29 -47 75 -72 136 -72 l52 0 -5 -43 c-6 -50 13 -94 52 -125
l26 -21 -33 -43 c-56 -74 -80 -142 -86 -244 -12 -231 59 -521 179 -726 21 -36
39 -69 39 -72 0 -3 -44 -6 -99 -6 -117 0 -127 -7 -118 -75 13 -90 75 -172 165
-216 65 -32 187 -33 253 -2 66 30 123 85 148 144 27 61 31 126 11 139 -8 6
-70 10 -137 10 l-121 0 -43 67 c-71 113 -150 310 -173 431 l-6 34 37 -32 c20
-18 67 -47 103 -64 l65 -31 735 0 735 0 65 31 c36 17 83 46 103 64 l37 32 -6
-34 c-15 -77 -69 -230 -116 -323 -66 -134 -214 -335 -245 -335 -8 0 -13 -15
-13 -40 0 -38 2 -40 29 -40 24 0 42 15 98 76 l69 76 59 -17 c175 -51 358 59
382 230 9 71 2 75 -148 75 l-128 0 25 60 c61 152 100 382 92 546 -6 107 -39
192 -104 263 -56 62 -69 67 -94 32 l-21 -30 43 -43 c83 -83 116 -202 84 -310
-16 -56 -71 -149 -92 -155 -6 -2 -17 10 -24 27 -16 39 -61 76 -101 85 l-31 7
35 37 c19 20 40 46 46 58 16 31 14 99 -5 134 -14 28 -14 34 1 71 23 59 30 156
15 219 -30 128 -108 226 -228 282 -61 29 -76 32 -162 32 -83 0 -103 -4 -157
-29 -35 -16 -63 -31 -63 -35 0 -3 11 -19 24 -36 18 -23 27 -27 37 -18 21 17
118 43 159 43 111 0 226 -70 280 -171 32 -59 35 -71 35 -149 -1 -111 -11 -130
-71 -130 l-45 0 18 33 c25 47 23 150 -4 202 -28 52 -67 89 -123 114 -90 41
-180 22 -256 -54 -79 -79 -95 -175 -45 -276 17 -36 20 -52 13 -89 l-7 -44 -28
29 c-97 105 -111 272 -32 390 l26 38 -22 23 c-12 13 -28 24 -36 24 -15 0 -68
-89 -85 -142 l-11 -38 -84 0 -83 0 0 109 c0 96 -3 112 -23 142 -31 47 -81 71
-134 65 l-43 -6 0 54 c0 95 -70 163 -157 152 l-43 -6 0 53 c0 120 -113 195
-208 137z m1233 -636 c18 -8 43 -26 56 -40 l22 -24 -143 0 -143 0 24 26 c48
52 122 68 184 38z m-461 -186 c11 -71 35 -133 72 -184 30 -43 33 -50 18 -59
-69 -42 -94 -85 -94 -159 l0 -46 -42 6 c-76 9 -158 -57 -158 -128 l0 -29 -262
3 -263 3 -63 34 c-111 60 -167 154 -167 281 0 65 5 85 33 142 20 41 47 78 70
96 59 46 60 46 55 -1 -5 -53 19 -103 66 -134 33 -22 41 -23 275 -23 l242 0 49
-50 c27 -27 54 -50 60 -50 12 0 45 36 45 48 0 4 -22 30 -50 57 l-50 49 0 93 0
93 79 0 78 0 7 -42z m556 30 c-1 -29 -40 -97 -68 -116 l-29 -21 -19 20 c-40
44 -111 62 -154 39 -15 -8 -21 -4 -34 24 -32 67 -34 66 144 66 121 0 160 -3
160 -12z m-180 -168 c16 -16 20 -33 20 -88 0 -117 25 -120 131 -17 84 82 120
94 159 55 39 -39 27 -75 -55 -159 -103 -106 -100 -131 17 -131 72 0 108 -19
108 -57 -1 -53 -43 -63 -255 -63 l-170 0 84 84 84 85 -17 25 c-9 14 -22 26
-29 26 -7 0 -62 -49 -122 -110 l-110 -110 -72 0 -73 0 0 120 c0 107 2 122 20
140 11 11 29 20 40 20 11 0 29 -9 40 -20 11 -11 20 -29 20 -40 0 -17 7 -20 40
-20 l40 0 0 120 c0 107 2 122 20 140 11 11 29 20 40 20 11 0 29 -9 40 -20z
m-400 -400 c11 -11 20 -29 20 -40 0 -18 -7 -20 -60 -20 -53 0 -60 2 -60 20 0
11 9 29 20 40 11 11 29 20 40 20 11 0 29 -9 40 -20z m1130 -432 c0 -23 -38
-75 -72 -100 -61 -46 -140 -60 -205 -37 l-31 10 40 70 41 69 113 0 c85 0 114
-3 114 -12z m-1640 -195 c0 -3 -11 -26 -25 -49 -79 -134 -294 -134 -376 0 -35
57 -38 56 191 56 116 0 210 -3 210 -7z"/>
<path d="M522 1228 c-16 -16 -16 -200 0 -216 16 -16 200 -16 216 0 16 16 16
200 0 216 -16 16 -200 16 -216 0z m148 -108 l0 -40 -40 0 -40 0 0 40 0 40 40
0 40 0 0 -40z"/>
<path d="M905 1230 c-63 -26 -92 -110 -56 -167 21 -34 116 -103 141 -103 20 0
120 101 120 120 0 26 -69 120 -103 140 -34 21 -68 24 -102 10z m89 -107 c24
-34 24 -38 9 -55 -16 -18 -20 -17 -65 14 -30 21 -36 46 -16 66 21 21 47 13 72
-25z"/>
<path d="M1853 2340 c-34 -20 -103 -115 -103 -140 0 -20 101 -120 120 -120 26
0 120 69 140 103 11 18 20 43 20 55 0 41 -30 90 -65 106 -44 21 -73 20 -112
-4z m91 -82 c14 -22 2 -42 -40 -69 -30 -18 -32 -18 -47 -1 -15 17 -15 21 9 56
28 40 58 46 78 14z"/>
<path d="M2002 2068 c-8 -8 -12 -47 -12 -108 0 -61 4 -100 12 -108 16 -16 200
-16 216 0 16 16 16 200 0 216 -8 8 -47 12 -108 12 -61 0 -100 -4 -108 -12z
m148 -108 l0 -40 -40 0 -40 0 0 40 0 40 40 0 40 0 0 -40z"/>
<path d="M1093 661 c-37 -23 -63 -68 -63 -107 0 -38 35 -89 70 -104 35 -15
137 -7 179 13 25 12 26 15 26 97 l0 85 -38 12 c-75 25 -139 26 -174 4z m100
-67 c32 -6 37 -10 37 -34 0 -29 -19 -40 -70 -40 -44 0 -66 40 -38 68 14 14 19
14 71 6z"/>
<path d="M1495 415 c-21 -20 -25 -34 -25 -80 l0 -55 -280 0 -280 0 0 -40 0
-40 280 0 c246 0 280 -2 280 -15 0 -9 11 -27 25 -40 23 -24 31 -25 135 -25
104 0 112 1 135 25 24 23 25 31 25 135 0 104 -1 112 -25 135 -23 24 -31 25
-135 25 -104 0 -112 -1 -135 -25z m215 -135 l0 -80 -80 0 -80 0 0 80 0 80 80
0 80 0 0 -80z"/>
</g>
</svg>
