<?xml version="1.0" standalone="no"?>
<!DOCTYPE svg PUBLIC "-//W3C//DTD SVG 20010904//EN"
 "http://www.w3.org/TR/2001/REC-SVG-20010904/DTD/svg10.dtd">
<svg version="1.0" xmlns="http://www.w3.org/2000/svg"
 width="221.000000pt" height="258.000000pt" viewBox="0 0 221.000000 258.000000"
 preserveAspectRatio="xMidYMid meet">
<metadata>
Created by potrace 1.16, written by Peter Selinger 2001-2019
</metadata>
<g transform="translate(0.000000,258.000000) scale(0.100000,-0.100000)"
fill="#000000" stroke="none">
<path d="M945 2485 c-63 -34 -132 -125 -166 -218 -11 -32 -23 -51 -31 -49 -7
2 -41 11 -75 20 -44 12 -69 14 -88 7 -16 -6 -88 -88 -185 -210 l-160 -200 0
-163 c0 -160 0 -163 25 -187 13 -14 31 -25 40 -25 11 0 15 -11 15 -40 0 -29
-4 -40 -15 -40 -9 0 -27 -11 -40 -25 l-25 -24 0 -231 0 -231 25 -24 c13 -14
31 -25 40 -25 11 0 15 -11 15 -40 0 -29 -4 -40 -15 -40 -9 0 -27 -11 -40 -25
l-25 -24 0 -231 0 -231 25 -24 24 -25 791 0 791 0 24 25 25 24 0 231 0 231
-25 24 c-13 14 -31 25 -40 25 -11 0 -15 11 -15 40 0 29 4 40 15 40 9 0 27 11
40 25 l25 24 0 231 0 231 -25 24 c-13 14 -31 25 -40 25 -11 0 -15 11 -15 40 0
29 4 40 15 40 9 0 27 11 40 25 25 24 25 27 25 188 0 120 -3 167 -12 175 -11 8
-225 77 -634 203 l-62 19 14 38 c19 53 17 93 -7 159 -62 168 -185 266 -274
218z m113 -104 c44 -45 90 -132 99 -184 14 -87 -81 -186 -167 -174 -88 12
-159 96 -147 174 14 84 112 223 157 223 11 0 37 -18 58 -39z m-363 -232 c46
-14 75 -28 78 -38 3 -9 8 -24 12 -33 6 -15 -2 -17 -61 -20 -74 -3 -99 -21 -78
-55 9 -15 31 -19 125 -23 77 -4 126 -11 151 -23 57 -26 116 -22 184 13 l59 31
219 -68 218 -68 -61 -5 c-75 -6 -94 -23 -101 -92 -10 -95 -71 -94 -80 2 -9 80
-27 90 -160 90 -91 0 -111 -3 -131 -19 l-24 -19 -5 -313 c-5 -283 -7 -313 -22
-323 -13 -8 -23 -8 -35 0 -16 10 -18 40 -23 323 l-5 313 -24 19 c-18 15 -39
19 -91 19 -89 0 -112 -17 -120 -90 -9 -96 -70 -97 -80 -2 -8 79 -20 86 -156
92 l-116 5 122 153 c67 83 124 152 127 152 3 0 38 -10 78 -21z m-132 -415 c7
-69 51 -109 117 -109 66 0 110 40 117 109 6 46 6 46 44 46 l39 0 0 -120 0
-120 -280 0 -280 0 0 120 0 120 119 0 118 0 6 -46z m720 0 c7 -69 51 -109 117
-109 66 0 110 40 117 109 l6 46 158 0 159 0 0 -120 0 -120 -360 0 -360 0 0
120 0 120 79 0 78 0 6 -46z m-403 -314 l0 -40 -240 0 -240 0 0 40 0 40 240 0
240 0 0 -40z m880 0 l0 -40 -320 0 -320 0 0 40 0 40 320 0 320 0 0 -40z m-878
-185 c3 -58 8 -69 36 -98 28 -27 39 -32 82 -32 43 0 54 5 82 32 28 29 33 40
36 98 l4 65 359 0 359 0 0 -200 0 -200 -760 0 -760 0 0 200 0 200 279 0 279 0
4 -65z m878 -455 l0 -40 -680 0 -680 0 0 40 0 40 680 0 680 0 0 -40z m80 -320
l0 -200 -760 0 -760 0 0 200 0 200 760 0 760 0 0 -200z"/>
<path d="M1372 1208 c-7 -7 -12 -20 -12 -29 0 -35 23 -40 205 -37 157 3 179 5
189 21 8 12 8 22 0 35 -10 15 -32 17 -190 20 -131 2 -183 -1 -192 -10z"/>
<path d="M412 1048 c-7 -7 -12 -20 -12 -29 0 -35 23 -40 205 -37 157 3 179 5
189 21 8 12 8 22 0 35 -10 15 -32 17 -190 20 -131 2 -183 -1 -192 -10z"/>
<path d="M474 571 c-11 -5 -33 -23 -47 -41 -39 -46 -37 -99 6 -145 77 -84 207
-34 207 79 0 52 -51 106 -105 111 -22 3 -49 1 -61 -4z"/>
<path d="M1315 571 c-38 -17 -67 -58 -72 -104 -5 -41 -2 -48 30 -83 32 -35 40
-39 86 -39 44 0 55 4 83 33 28 28 33 39 33 82 0 42 -5 54 -31 81 -33 33 -92
46 -129 30z"/>
</g>
</svg>
