<?xml version="1.0" standalone="no"?>
<!DOCTYPE svg PUBLIC "-//W3C//DTD SVG 20010904//EN"
 "http://www.w3.org/TR/2001/REC-SVG-20010904/DTD/svg10.dtd">
<svg version="1.0" xmlns="http://www.w3.org/2000/svg"
 width="103.000000pt" height="109.000000pt" viewBox="0 0 103.000000 109.000000"
 preserveAspectRatio="xMidYMid meet">

<g transform="translate(0.000000,109.000000) scale(0.100000,-0.100000)"
fill="#000000" stroke="none">
<path d="M225 933 c-25 -52 -27 -64 -23 -147 4 -73 12 -110 41 -186 36 -95 36
-95 22 -150 -19 -69 -18 -163 0 -215 9 -25 11 -43 5 -49 -13 -13 -13 -36 -1
-36 15 0 60 101 67 151 8 61 -9 140 -64 284 -37 99 -46 135 -50 205 -4 80 -2
89 27 143 21 40 26 57 16 57 -7 0 -26 -26 -40 -57z m87 -593 c0 -36 -4 -76
-10 -90 l-10 -25 -11 28 c-14 37 -14 121 1 172 l11 40 9 -30 c5 -16 10 -59 10
-95z"/>
<path d="M302 977 c-31 -37 -52 -105 -52 -172 0 -60 8 -94 56 -230 47 -135 56
-172 57 -235 2 -65 -2 -82 -26 -124 -28 -51 -33 -66 -19 -66 5 0 22 24 38 53
26 46 29 61 28 137 -1 77 -7 101 -58 245 -71 203 -74 281 -14 367 10 14 18 29
18 32 0 11 -17 6 -28 -7z"/>
<path d="M340 958 c-51 -84 -51 -192 0 -333 90 -252 98 -317 46 -418 -29 -54
-26 -76 4 -37 60 78 64 198 10 345 -91 253 -99 326 -46 421 29 53 30 54 16 54
-6 0 -19 -15 -30 -32z"/>
<path d="M392 958 c-31 -49 -46 -122 -39 -186 4 -31 32 -129 62 -217 52 -148
56 -165 52 -231 -3 -55 -10 -83 -30 -117 -30 -50 -32 -57 -17 -57 5 0 21 21
36 46 22 37 28 63 32 124 4 74 2 85 -54 246 -79 229 -80 273 -6 417 2 4 -1 7
-6 7 -6 0 -19 -15 -30 -32z"/>
<path d="M433 938 c-24 -45 -28 -65 -27 -133 0 -67 6 -97 38 -185 88 -242 95
-309 46 -406 -16 -32 -27 -60 -25 -62 9 -10 29 14 51 62 44 94 33 181 -52 416
-49 137 -52 220 -11 299 30 59 31 61 17 61 -5 0 -22 -24 -37 -52z"/>
<path d="M482 933 c-22 -48 -26 -71 -25 -133 1 -64 9 -99 57 -235 72 -205 75
-290 14 -377 -10 -15 -14 -29 -9 -32 13 -8 45 39 61 89 26 79 16 151 -46 330
-68 200 -73 256 -31 349 31 67 31 66 16 66 -5 0 -22 -26 -37 -57z"/>
<path d="M534 934 c-22 -46 -27 -69 -26 -127 0 -73 7 -99 77 -296 48 -134 51
-214 11 -294 -31 -64 -33 -76 -6 -52 33 30 55 103 54 180 -2 70 -8 94 -78 290
-48 134 -50 217 -7 299 21 40 26 56 16 56 -7 0 -26 -25 -41 -56z"/>
<path d="M602 963 c-30 -44 -42 -90 -42 -162 0 -54 10 -94 56 -226 69 -198 75
-267 32 -356 -31 -61 -33 -69 -19 -69 5 0 22 26 38 58 43 88 40 172 -13 323
-37 105 -40 118 -29 150 24 69 27 133 10 204 -13 49 -14 70 -6 78 13 13 14 27
2 27 -5 0 -18 -12 -29 -27z m20 -143 c1 -68 -12 -134 -25 -121 -15 15 -21 151
-7 186 l12 30 10 -25 c5 -14 10 -45 10 -70z"/>
<path d="M258 71 c4 -30 4 -30 25 -10 17 15 18 22 8 32 -10 10 -11 8 -6 -5 4
-11 2 -18 -4 -18 -6 0 -11 7 -11 15 0 8 -4 15 -8 15 -5 0 -7 -13 -4 -29z"/>
<path d="M326 84 c-4 -9 -4 -19 -1 -22 3 -3 5 0 5 7 0 7 5 9 10 6 6 -3 10 -2
10 4 0 18 -18 21 -24 5z"/>
<path d="M452 70 c0 -19 2 -27 5 -17 2 9 2 25 0 35 -3 9 -5 1 -5 -18z"/>
<path d="M492 70 c0 -19 2 -27 5 -17 2 9 2 25 0 35 -3 9 -5 1 -5 -18z"/>
<path d="M592 70 c0 -19 2 -27 5 -17 2 9 2 25 0 35 -3 9 -5 1 -5 -18z"/>
<path d="M652 70 c0 -19 2 -27 5 -17 2 9 2 25 0 35 -3 9 -5 1 -5 -18z"/>
<path d="M692 70 c0 -19 2 -27 5 -17 2 9 2 25 0 35 -3 9 -5 1 -5 -18z"/>
<path d="M373 66 c3 -26 33 -44 48 -29 9 9 7 11 -9 6 -16 -4 -24 1 -32 18 -7
17 -9 19 -7 5z"/>
<path d="M210 36 c7 -7 13 -7 20 0 6 6 3 10 -10 10 -13 0 -16 -4 -10 -10z"/>
</g>
</svg>
